<?xml version="1.0" encoding="UTF-8"?>
<svg width="333px" height="93px" viewBox="0 0 333 93" version="1.1" xmlns="http://www.w3.org/2000/svg" xmlns:xlink="http://www.w3.org/1999/xlink">
    <title>a24</title>
    <g id="Page-1" stroke="none" stroke-width="1" fill="none" fill-rule="evenodd">
        <g id="Logo" fill-rule="nonzero">
            <path d="M6,60.864 C6,58.529 7.891,56.637 10.226,56.637 C12.56,56.637 14.453,58.529 14.453,60.864 C14.453,63.198 12.56,65.091 10.226,65.091 C7.891,65.091 6,63.198 6,60.864" id="Fill-15" fill="#044680"></path>
            <path d="M19.936,75.029 C19.936,72.695 21.829,70.803 24.164,70.803 C26.498,70.803 28.39,72.695 28.39,75.029 C28.39,77.364 26.498,79.256 24.164,79.256 C21.829,79.256 19.936,77.364 19.936,75.029" id="Fill-16" fill="#044680"></path>
            <path d="M39.357,80.057 C39.357,77.722 41.25,75.83 43.584,75.83 C45.919,75.83 47.811,77.722 47.811,80.057 C47.811,82.391 45.919,84.283 43.584,84.283 C41.25,84.283 39.357,82.391 39.357,80.057" id="Fill-17" fill="#044680"></path>
            <path d="M6.228,23.164 C6.228,20.83 8.12,18.937 10.455,18.937 C12.789,18.937 14.682,20.83 14.682,23.164 C14.682,25.5 12.789,27.392 10.455,27.392 C8.12,27.392 6.228,25.5 6.228,23.164" id="Fill-18" fill="#044680"></path>
            <path d="M20.165,9.227 C20.165,6.893 22.057,5 24.391,5 C26.726,5 28.619,6.893 28.619,9.227 C28.619,11.561 26.726,13.454 24.391,13.454 C22.057,13.454 20.165,11.561 20.165,9.227" id="Fill-19" fill="#044680"></path>
            <path d="M0.973,40.986 C0.973,38.651 2.865,36.759 5.2,36.759 C7.534,36.759 9.427,38.651 9.427,40.986 C9.427,43.32 7.534,45.213 5.2,45.213 C2.865,45.213 0.973,43.32 0.973,40.986" id="Fill-13" fill="#044680"></path>
            <path d="M31.818,42.242 C31.818,35.807 37.035,30.59 43.471,30.59 C49.906,30.59 55.122,35.807 55.122,42.242 C55.122,48.678 49.906,53.895 43.471,53.895 C37.035,53.895 31.818,48.678 31.818,42.242" id="Fill-12" fill="#C5234C"></path>
            <path d="M62.662,42.585 C62.662,31.161 53.944,23.507 43.471,23.507 C32.997,23.507 24.507,31.997 24.507,42.471 C24.507,52.945 32.997,61.321 43.471,61.321 C45.804,61.321 47.811,62.642 47.811,64.976 C47.811,67.311 45.919,69.203 43.584,69.203 C28.82,69.203 16.738,57.235 16.738,42.471 C16.738,27.707 28.706,15.739 43.471,15.739 C45.202,15.739 47.885,15.996 49.524,16.31 C52.381,16.424 54.437,14.989 54.437,12.654 C54.437,10.32 53.121,9.316 50.095,8.885 C46.897,8.427 43.613,8.427 43.613,8.427 C41.278,8.427 39.586,6.649 39.586,4.315 C39.586,1.98 41.593,0.316 43.927,0.316 C43.927,0.316 66.746,-0.076 77.514,15.054 C87.11,28.534 86.024,42.242 86.024,42.242 C86.024,48.678 80.751,53.895 74.315,53.895 C67.88,53.895 62.662,49.021 62.662,42.585" id="Fill-11" fill="#044680"></path>
        </g>
        <g id="A24" transform="translate(97.000000, 15.000000)" fill="#044680" fill-rule="nonzero">
            <path d="M19.123,33.831 C17.687,35.385 16.129,36.547 14.452,37.315 C12.776,38.083 10.97,38.468 9.035,38.468 C6.281,38.468 4.085,37.749 2.451,36.314 C0.818,34.877 0,32.963 0,30.569 C0,29.013 0.372,27.653 1.116,26.491 C1.862,25.328 2.944,24.414 4.364,23.747 C5.99,23.008 8.702,22.493 12.5,22.201 C13.238,22.149 13.793,22.106 14.169,22.072 C14.392,22.02 14.692,21.961 15.068,21.892 C17.669,21.363 18.97,20.244 18.97,18.535 C18.97,16.415 18.444,14.898 17.391,13.984 C16.338,13.07 14.606,12.613 12.193,12.613 C9.745,12.613 7.872,13.121 6.572,14.138 C5.272,15.155 4.57,16.663 4.467,18.663 L1.366,18.637 C1.435,15.923 2.436,13.776 4.368,12.197 C6.302,10.617 8.911,9.828 12.196,9.828 C15.462,9.828 17.943,10.528 19.636,11.927 C21.33,13.328 22.177,15.376 22.177,18.073 L22.177,32.959 C22.177,34.088 22.314,34.788 22.587,35.062 C22.861,35.335 23.373,35.473 24.124,35.473 C24.364,35.473 24.569,35.469 24.739,35.46 C24.91,35.451 25.089,35.438 25.278,35.422 L25.278,37.785 C24.884,37.872 24.49,37.938 24.098,37.983 C23.704,38.026 23.345,38.047 23.021,38.047 C21.722,38.047 20.748,37.73 20.098,37.096 C19.448,36.461 19.123,35.519 19.123,34.267 L19.123,33.831 Z M18.918,23.489 C18.08,23.798 17.006,24.048 15.698,24.237 C14.388,24.426 12.279,24.598 9.37,24.752 C7.35,25.283 5.826,26.035 4.799,27.01 C3.772,27.985 3.258,29.157 3.258,30.525 C3.258,32.081 3.811,33.322 4.914,34.246 C6.018,35.168 7.52,35.63 9.42,35.63 C12.313,35.63 14.618,34.882 16.338,33.386 C18.059,31.888 18.918,29.849 18.918,27.266 L18.918,23.489 L18.918,23.489 Z" id="Fill-1"></path>
            <path d="M46.208,28.378 L49.362,28.378 C49.071,31.503 47.915,33.965 45.896,35.766 C43.877,37.568 41.25,38.468 38.016,38.468 C34.321,38.468 31.407,37.203 29.277,34.673 C27.147,32.143 26.081,28.699 26.081,24.34 C26.081,19.827 27.164,16.28 29.33,13.699 C31.496,11.118 34.463,9.828 38.232,9.828 C41.296,9.828 43.818,10.686 45.795,12.403 C47.774,14.12 48.839,16.379 48.993,19.182 L45.946,19.182 C45.689,17.197 44.855,15.606 43.443,14.409 C42.031,13.211 40.29,12.613 38.219,12.613 C35.498,12.613 33.339,13.639 31.739,15.692 C30.139,17.746 29.339,20.535 29.339,24.059 C29.339,27.67 30.148,30.527 31.766,32.631 C33.383,34.735 35.553,35.788 38.275,35.788 C40.397,35.788 42.168,35.13 43.589,33.813 C45.01,32.497 45.883,30.686 46.208,28.378" id="Fill-2"></path>
            <path d="M70.179,33.831 C68.74,35.385 67.184,36.547 65.507,37.315 C63.829,38.083 62.024,38.468 60.09,38.468 C57.335,38.468 55.141,37.749 53.506,36.314 C51.871,34.877 51.055,32.963 51.055,30.569 C51.055,29.013 51.427,27.653 52.171,26.491 C52.915,25.328 53.998,24.414 55.419,23.747 C57.044,23.008 59.756,22.493 63.555,22.201 C64.291,22.149 64.848,22.106 65.224,22.072 C65.447,22.02 65.745,21.961 66.122,21.892 C68.723,21.363 70.024,20.244 70.024,18.535 C70.024,16.415 69.498,14.898 68.446,13.984 C67.393,13.07 65.66,12.613 63.247,12.613 C60.801,12.613 58.927,13.121 57.626,14.138 C56.325,15.155 55.624,16.663 55.522,18.663 L52.421,18.637 C52.489,15.923 53.49,13.776 55.423,12.197 C57.357,10.617 59.965,9.828 63.249,9.828 C66.517,9.828 68.997,10.528 70.691,11.927 C72.385,13.328 73.232,15.376 73.232,18.073 L73.232,32.959 C73.232,34.088 73.367,34.788 73.642,35.062 C73.915,35.335 74.427,35.473 75.179,35.473 C75.418,35.473 75.623,35.469 75.794,35.46 C75.965,35.451 76.145,35.438 76.332,35.422 L76.332,37.785 C75.94,37.872 75.545,37.938 75.153,37.983 C74.758,38.026 74.4,38.047 74.075,38.047 C72.777,38.047 71.802,37.73 71.153,37.096 C70.503,36.461 70.179,35.519 70.179,34.267 L70.179,33.831 Z M69.973,23.489 C69.134,23.798 68.061,24.048 66.751,24.237 C65.442,24.426 63.333,24.598 60.424,24.752 C58.405,25.283 56.881,26.035 55.854,27.01 C54.826,27.985 54.313,29.157 54.313,30.525 C54.313,32.081 54.864,33.322 55.969,34.246 C57.073,35.168 58.574,35.63 60.474,35.63 C63.367,35.63 65.673,34.882 67.393,33.386 C69.113,31.888 69.973,29.849 69.973,27.266 L69.973,23.489 L69.973,23.489 Z" id="Fill-3"></path>
            <path d="M101.888,0 L101.888,37.785 L98.735,37.785 L98.735,33.169 C97.691,34.945 96.362,36.28 94.744,37.176 C93.129,38.072 91.253,38.521 89.115,38.521 C85.44,38.521 82.531,37.239 80.395,34.675 C78.256,32.11 77.188,28.614 77.188,24.187 C77.188,19.76 78.278,16.26 80.459,13.687 C82.639,11.114 85.593,9.828 89.321,9.828 C91.458,9.828 93.318,10.28 94.9,11.185 C96.481,12.09 97.759,13.438 98.735,15.23 L98.735,0 L101.888,0 Z M80.552,24.187 C80.552,27.848 81.359,30.688 82.975,32.707 C84.591,34.726 86.843,35.735 89.732,35.735 C92.707,35.735 94.994,34.738 96.592,32.746 C98.191,30.753 98.99,27.9 98.99,24.187 C98.99,20.492 98.187,17.639 96.579,15.628 C94.973,13.618 92.69,12.613 89.732,12.613 C86.791,12.613 84.526,13.609 82.936,15.602 C81.347,17.596 80.552,20.457 80.552,24.187 L80.552,24.187 Z" id="Fill-4"></path>
            <path d="M108.812,22.23 L125.893,22.255 C125.756,19.238 124.94,16.868 123.444,15.144 C121.947,13.421 119.96,12.56 117.481,12.56 C114.985,12.56 112.954,13.434 111.39,15.183 C109.824,16.932 108.965,19.281 108.812,22.23 Z M108.761,24.752 L108.761,24.906 C108.761,28.243 109.565,30.899 111.171,32.876 C112.779,34.852 114.933,35.841 117.635,35.841 C119.772,35.841 121.558,35.263 122.994,34.109 C124.431,32.954 125.302,31.377 125.611,29.376 L128.766,29.376 C128.424,32.143 127.227,34.358 125.175,36.023 C123.123,37.688 120.541,38.521 117.429,38.521 C113.719,38.521 110.814,37.264 108.71,34.752 C106.608,32.239 105.555,28.751 105.555,24.29 C105.555,19.743 106.612,16.195 108.723,13.648 C110.834,11.101 113.771,9.828 117.533,9.828 C121.192,9.828 124.043,11.046 126.086,13.483 C128.129,15.92 129.151,19.329 129.151,23.707 L129.151,24.752 L108.761,24.752 L108.761,24.752 Z" id="Fill-5"></path>
            <path d="M132.634,37.785 L132.634,10.511 L135.581,10.511 L135.581,15.026 C136.505,13.353 137.705,12.068 139.184,11.172 C140.662,10.276 142.351,9.828 144.248,9.828 C146.281,9.828 147.974,10.292 149.324,11.223 C150.674,12.153 151.572,13.472 152.016,15.179 C152.923,13.438 154.125,12.111 155.624,11.198 C157.121,10.284 158.845,9.828 160.797,9.828 C163.759,9.828 165.971,10.567 167.435,12.044 C168.898,13.522 169.629,15.765 169.629,18.772 L169.629,37.785 L166.424,37.785 L166.424,19.029 C166.424,16.737 165.979,15.095 165.089,14.102 C164.198,13.111 162.734,12.615 160.697,12.615 C158.282,12.615 156.348,13.359 154.892,14.847 C153.436,16.334 152.709,18.285 152.709,20.697 L152.709,37.785 L149.556,37.785 L149.556,19.337 C149.556,17.078 149.085,15.402 148.145,14.308 C147.204,13.213 145.761,12.665 143.813,12.665 C141.419,12.665 139.483,13.427 138.004,14.949 C136.526,16.471 135.787,18.464 135.787,20.927 L135.787,37.785 L132.634,37.785" id="Fill-6"></path>
            <path d="M182.811,43.086 C182.024,45.214 181.07,46.727 179.95,47.628 C178.83,48.529 177.347,48.978 175.5,48.978 C175.055,48.978 174.661,48.957 174.319,48.914 C173.978,48.871 173.635,48.797 173.294,48.695 L173.294,45.831 C173.874,45.917 174.332,45.981 174.665,46.024 C174.999,46.067 175.26,46.088 175.448,46.088 C176.594,46.088 177.496,45.789 178.155,45.192 C178.813,44.592 179.493,43.363 180.194,41.5 L181.45,38.088 L170.823,10.511 L174.192,10.511 L183.016,33.782 L191.634,10.511 L194.892,10.511 L182.811,43.086" id="Fill-7"></path>
            <path d="M197.16,37.785 C197.16,37.696 197.154,37.561 197.141,37.377 C197.127,37.194 197.121,37.058 197.121,36.969 C197.121,35.035 197.644,33.302 198.69,31.772 C199.736,30.242 201.444,28.737 203.814,27.257 C204.395,26.891 205.23,26.391 206.317,25.76 C208.54,24.445 209.969,23.453 210.601,22.783 C211.182,22.151 211.599,21.506 211.852,20.849 C212.106,20.192 212.231,19.427 212.231,18.555 C212.231,16.773 211.726,15.376 210.714,14.365 C209.703,13.353 208.307,12.848 206.525,12.848 C204.529,12.848 202.998,13.432 201.937,14.599 C200.875,15.767 200.331,17.449 200.307,19.645 L197.782,19.645 C197.87,16.755 198.676,14.531 200.2,12.972 C201.725,11.413 203.858,10.634 206.601,10.634 C209.13,10.634 211.135,11.342 212.614,12.758 C214.093,14.174 214.833,16.083 214.833,18.485 C214.833,19.622 214.659,20.637 214.312,21.529 C213.964,22.42 213.417,23.271 212.672,24.08 C211.824,25.003 210.08,26.204 207.437,27.683 C206.603,28.15 205.963,28.517 205.523,28.782 C203.536,29.946 202.095,31.055 201.198,32.111 C200.299,33.167 199.8,34.333 199.699,35.61 L214.682,35.61 L214.682,37.785 L197.16,37.785" id="Fill-8"></path>
            <path d="M229.616,37.785 L229.616,31.065 L217.925,31.065 L217.925,28.886 L229.428,11.411 L232.142,11.411 L232.142,28.929 L235.754,28.929 L235.754,31.065 L232.142,31.065 L232.142,37.785 L229.616,37.785 Z M229.616,28.929 L229.616,14.634 L220.26,28.929 L229.616,28.929 L229.616,28.929 Z" id="Fill-9"></path>
        </g>
        <g id="Berufliche-Weiterbildung" transform="translate(59.000000, 69.000000)" fill="#044680" fill-rule="nonzero">
            <path d="M8.393,16.18 C9.451,16.18 10.279,15.895 10.875,15.323 C11.472,14.752 11.77,13.963 11.77,12.954 C11.77,12.366 11.66,11.879 11.443,11.492 C11.224,11.106 10.934,10.799 10.573,10.572 C10.211,10.346 9.795,10.186 9.326,10.094 C8.855,10.002 8.368,9.955 7.864,9.955 L2.395,9.955 L2.395,16.18 L8.393,16.18 Z M7.183,7.939 C8.544,7.939 9.523,7.699 10.119,7.221 C10.715,6.742 11.014,6.024 11.014,5.066 C11.014,4.428 10.913,3.924 10.711,3.553 C10.51,3.184 10.233,2.899 9.88,2.696 C9.527,2.494 9.119,2.365 8.658,2.306 C8.196,2.247 7.703,2.218 7.183,2.218 L2.395,2.218 L2.395,7.939 L7.183,7.939 Z M6.528,0.201 C6.914,0.201 7.33,0.205 7.776,0.214 C8.22,0.223 8.661,0.248 9.099,0.289 C9.535,0.332 9.943,0.395 10.321,0.479 C10.699,0.563 11.023,0.69 11.291,0.857 C11.879,1.209 12.379,1.697 12.79,2.318 C13.202,2.941 13.409,3.705 13.409,4.611 C13.409,5.57 13.177,6.398 12.715,7.094 C12.253,7.792 11.594,8.309 10.737,8.645 L10.737,8.695 C11.846,8.93 12.694,9.434 13.283,10.207 C13.87,10.981 14.164,11.921 14.164,13.029 C14.164,13.686 14.046,14.324 13.812,14.945 C13.576,15.567 13.228,16.117 12.766,16.596 C12.303,17.074 11.733,17.461 11.052,17.756 C10.371,18.049 9.585,18.196 8.696,18.196 L0,18.196 L0,0.201 L6.528,0.201 L6.528,0.201 Z" id="Fill-20"></path>
            <path d="M25.618,8.997 C25.425,8.543 25.165,8.152 24.837,7.825 C24.51,7.498 24.123,7.237 23.678,7.044 C23.233,6.852 22.742,6.754 22.203,6.754 C21.65,6.754 21.149,6.852 20.704,7.044 C20.259,7.237 19.876,7.502 19.558,7.838 C19.238,8.174 18.986,8.565 18.801,9.01 C18.617,9.455 18.507,9.93 18.474,10.434 L25.959,10.434 C25.925,9.93 25.812,9.451 25.618,8.997 Z M26.135,17.365 C25.16,18.104 23.934,18.474 22.455,18.474 C21.413,18.474 20.511,18.305 19.746,17.969 C18.982,17.634 18.339,17.163 17.819,16.559 C17.297,15.953 16.907,15.231 16.647,14.391 C16.386,13.551 16.239,12.635 16.205,11.644 C16.205,10.652 16.357,9.745 16.66,8.922 C16.961,8.099 17.386,7.385 17.932,6.779 C18.478,6.174 19.124,5.704 19.872,5.368 C20.619,5.032 21.439,4.863 22.329,4.863 C23.49,4.863 24.451,5.104 25.215,5.582 C25.98,6.061 26.593,6.67 27.055,7.409 C27.517,8.149 27.836,8.955 28.013,9.829 C28.19,10.703 28.261,11.535 28.227,12.324 L18.474,12.324 C18.456,12.896 18.524,13.438 18.675,13.949 C18.826,14.463 19.07,14.916 19.407,15.311 C19.743,15.705 20.17,16.021 20.692,16.256 C21.212,16.491 21.826,16.609 22.532,16.609 C23.439,16.609 24.182,16.399 24.762,15.979 C25.341,15.559 25.724,14.92 25.909,14.063 L28.026,14.063 C27.74,15.526 27.11,16.625 26.135,17.365 L26.135,17.365 Z" id="Fill-21"></path>
            <path d="M32.386,5.166 L32.386,7.914 L32.437,7.914 C32.957,6.856 33.596,6.074 34.352,5.57 C35.108,5.066 36.066,4.83 37.225,4.863 L37.225,7.133 C36.368,7.133 35.637,7.25 35.033,7.484 C34.427,7.721 33.94,8.065 33.571,8.519 C33.201,8.973 32.932,9.523 32.764,10.169 C32.596,10.817 32.512,11.56 32.512,12.4 L32.512,18.196 L30.369,18.196 L30.369,5.166 L32.386,5.166" id="Fill-22"></path>
            <path d="M47.609,18.196 L47.609,16.13 L47.558,16.13 C47.105,16.936 46.525,17.528 45.819,17.906 C45.114,18.285 44.282,18.474 43.325,18.474 C42.467,18.474 41.753,18.36 41.182,18.133 C40.611,17.906 40.149,17.583 39.795,17.163 C39.443,16.743 39.195,16.243 39.052,15.664 C38.91,15.084 38.838,14.442 38.838,13.735 L38.838,5.166 L40.98,5.166 L40.98,13.987 C40.98,14.794 41.215,15.433 41.686,15.902 C42.156,16.373 42.803,16.609 43.626,16.609 C44.282,16.609 44.849,16.508 45.328,16.307 C45.807,16.105 46.205,15.818 46.525,15.449 C46.844,15.08 47.083,14.647 47.244,14.151 C47.403,13.656 47.483,13.113 47.483,12.525 L47.483,5.166 L49.624,5.166 L49.624,18.196 L47.609,18.196" id="Fill-23"></path>
            <path d="M51.54,7.057 L51.54,5.166 L53.733,5.166 L53.733,3.226 C53.733,2.167 54.039,1.365 54.653,0.818 C55.266,0.274 56.161,0 57.337,0 C57.538,0 57.769,0.017 58.03,0.051 C58.29,0.084 58.521,0.135 58.723,0.201 L58.723,2.067 C58.537,2 58.336,1.953 58.119,1.928 C57.9,1.902 57.698,1.891 57.513,1.891 C56.993,1.891 56.589,1.99 56.303,2.192 C56.018,2.395 55.875,2.781 55.875,3.352 L55.875,5.166 L58.395,5.166 L58.395,7.057 L55.875,7.057 L55.875,18.196 L53.733,18.196 L53.733,7.057 L51.54,7.057" id="Fill-24"></path>
            <polygon id="Fill-25" points="60.437 18.196 62.578 18.196 62.578 0.201 60.437 0.201"></polygon>
            <path d="M66.032,18.196 L68.173,18.196 L68.173,5.166 L66.032,5.166 L66.032,18.196 Z M66.032,2.822 L68.173,2.822 L68.173,0.201 L66.032,0.201 L66.032,2.822 Z" id="Fill-26"></path>
            <path d="M79.287,7.435 C78.749,6.981 78.028,6.754 77.12,6.754 C76.347,6.754 75.701,6.897 75.18,7.183 C74.659,7.469 74.243,7.847 73.932,8.317 C73.621,8.787 73.399,9.329 73.264,9.942 C73.129,10.556 73.063,11.19 73.063,11.846 C73.063,12.45 73.134,13.039 73.277,13.609 C73.419,14.181 73.642,14.69 73.945,15.135 C74.247,15.58 74.642,15.937 75.129,16.205 C75.617,16.475 76.196,16.609 76.869,16.609 C77.927,16.609 78.754,16.331 79.351,15.777 C79.947,15.223 80.313,14.442 80.447,13.434 L82.64,13.434 C82.405,15.046 81.804,16.289 80.838,17.163 C79.871,18.037 78.557,18.474 76.894,18.474 C75.902,18.474 75.024,18.314 74.26,17.994 C73.495,17.676 72.857,17.223 72.344,16.634 C71.831,16.046 71.446,15.344 71.185,14.529 C70.924,13.715 70.794,12.82 70.794,11.846 C70.794,10.871 70.92,9.959 71.172,9.111 C71.424,8.262 71.806,7.524 72.319,6.893 C72.831,6.263 73.474,5.768 74.247,5.406 C75.02,5.045 75.919,4.863 76.944,4.863 C77.683,4.863 78.376,4.952 79.023,5.129 C79.669,5.305 80.242,5.578 80.737,5.947 C81.233,6.317 81.64,6.783 81.959,7.346 C82.279,7.91 82.48,8.578 82.564,9.35 L80.346,9.35 C80.178,8.527 79.826,7.889 79.287,7.435" id="Fill-27"></path>
            <path d="M87.175,0.201 L87.175,7.082 L87.226,7.082 C87.394,6.679 87.629,6.338 87.932,6.061 C88.234,5.783 88.575,5.557 88.953,5.381 C89.33,5.204 89.725,5.074 90.137,4.99 C90.548,4.906 90.948,4.863 91.334,4.863 C92.191,4.863 92.905,4.982 93.476,5.217 C94.047,5.452 94.509,5.779 94.863,6.199 C95.215,6.619 95.463,7.119 95.606,7.699 C95.748,8.279 95.82,8.922 95.82,9.627 L95.82,18.196 L93.678,18.196 L93.678,9.375 C93.678,8.568 93.443,7.93 92.972,7.46 C92.501,6.99 91.855,6.754 91.032,6.754 C90.376,6.754 89.809,6.856 89.33,7.057 C88.852,7.258 88.453,7.544 88.133,7.914 C87.814,8.283 87.575,8.716 87.415,9.211 C87.255,9.707 87.175,10.249 87.175,10.837 L87.175,18.196 L85.034,18.196 L85.034,0.201 L87.175,0.201" id="Fill-28"></path>
            <path d="M107.753,8.997 C107.56,8.543 107.3,8.152 106.972,7.825 C106.645,7.498 106.258,7.237 105.813,7.044 C105.368,6.852 104.876,6.754 104.338,6.754 C103.785,6.754 103.284,6.852 102.839,7.044 C102.394,7.237 102.011,7.502 101.693,7.838 C101.372,8.174 101.12,8.565 100.936,9.01 C100.751,9.455 100.642,9.93 100.609,10.434 L108.094,10.434 C108.06,9.93 107.947,9.451 107.753,8.997 Z M108.27,17.365 C107.295,18.104 106.069,18.474 104.59,18.474 C103.548,18.474 102.646,18.305 101.881,17.969 C101.117,17.634 100.474,17.163 99.953,16.559 C99.432,15.953 99.041,15.231 98.782,14.391 C98.521,13.551 98.373,12.635 98.34,11.644 C98.34,10.652 98.492,9.745 98.794,8.922 C99.096,8.099 99.521,7.385 100.067,6.779 C100.613,6.174 101.259,5.704 102.007,5.368 C102.754,5.032 103.574,4.863 104.464,4.863 C105.624,4.863 106.585,5.104 107.35,5.582 C108.115,6.061 108.728,6.67 109.19,7.409 C109.652,8.149 109.971,8.955 110.148,9.829 C110.325,10.703 110.396,11.535 110.362,12.324 L100.609,12.324 C100.591,12.896 100.659,13.438 100.81,13.949 C100.961,14.463 101.204,14.916 101.541,15.311 C101.877,15.705 102.305,16.021 102.827,16.256 C103.347,16.491 103.96,16.609 104.666,16.609 C105.574,16.609 106.317,16.399 106.897,15.979 C107.476,15.559 107.859,14.92 108.043,14.063 L110.161,14.063 C109.874,15.526 109.245,16.625 108.27,17.365 L108.27,17.365 Z" id="Fill-29"></path>
            <polyline id="Fill-30" points="133.7 18.196 129.591 3.074 129.541 3.074 125.383 18.196 122.888 18.196 118.276 0.201 120.72 0.201 124.248 15.172 124.299 15.172 128.331 0.201 130.927 0.201 134.91 15.172 134.959 15.172 138.615 0.201 141.008 0.201 136.195 18.196 133.7 18.196"></polyline>
            <path d="M150.195,8.997 C150.001,8.543 149.742,8.152 149.413,7.825 C149.086,7.498 148.7,7.237 148.254,7.044 C147.809,6.852 147.318,6.754 146.78,6.754 C146.226,6.754 145.725,6.852 145.281,7.044 C144.835,7.237 144.453,7.502 144.134,7.838 C143.814,8.174 143.562,8.565 143.377,9.01 C143.193,9.455 143.083,9.93 143.05,10.434 L150.536,10.434 C150.501,9.93 150.388,9.451 150.195,8.997 Z M150.711,17.365 C149.737,18.104 148.51,18.474 147.032,18.474 C145.99,18.474 145.087,18.305 144.323,17.969 C143.558,17.634 142.915,17.163 142.395,16.559 C141.873,15.953 141.483,15.231 141.223,14.391 C140.962,13.551 140.815,12.635 140.782,11.644 C140.782,10.652 140.933,9.745 141.236,8.922 C141.537,8.099 141.962,7.385 142.508,6.779 C143.054,6.174 143.701,5.704 144.449,5.368 C145.196,5.032 146.015,4.863 146.906,4.863 C148.066,4.863 149.027,5.104 149.791,5.582 C150.556,6.061 151.169,6.67 151.631,7.409 C152.093,8.149 152.412,8.955 152.589,9.829 C152.766,10.703 152.837,11.535 152.803,12.324 L143.05,12.324 C143.033,12.896 143.1,13.438 143.251,13.949 C143.403,14.463 143.646,14.916 143.983,15.311 C144.319,15.705 144.746,16.021 145.268,16.256 C145.788,16.491 146.402,16.609 147.108,16.609 C148.015,16.609 148.758,16.399 149.338,15.979 C149.917,15.559 150.3,14.92 150.485,14.063 L152.602,14.063 C152.316,15.526 151.686,16.625 150.711,17.365 L150.711,17.365 Z" id="Fill-31"></path>
            <path d="M155.148,18.196 L157.289,18.196 L157.289,5.166 L155.148,5.166 L155.148,18.196 Z M155.148,2.822 L157.289,2.822 L157.289,0.201 L155.148,0.201 L155.148,2.822 Z" id="Fill-32"></path>
            <path d="M166.186,5.166 L166.186,7.057 L163.59,7.057 L163.59,15.147 C163.59,15.399 163.611,15.601 163.654,15.752 C163.695,15.902 163.775,16.021 163.893,16.105 C164.01,16.189 164.174,16.243 164.384,16.268 C164.594,16.293 164.867,16.307 165.203,16.307 L166.186,16.307 L166.186,18.196 L164.548,18.196 C163.994,18.196 163.519,18.158 163.124,18.083 C162.729,18.008 162.41,17.869 162.166,17.667 C161.922,17.465 161.742,17.18 161.624,16.811 C161.506,16.442 161.448,15.953 161.448,15.348 L161.448,7.057 L159.23,7.057 L159.23,5.166 L161.448,5.166 L161.448,1.26 L163.59,1.26 L163.59,5.166 L166.186,5.166" id="Fill-33"></path>
            <path d="M177.262,8.997 C177.069,8.543 176.809,8.152 176.481,7.825 C176.154,7.498 175.767,7.237 175.322,7.044 C174.876,6.852 174.385,6.754 173.847,6.754 C173.293,6.754 172.792,6.852 172.348,7.044 C171.903,7.237 171.52,7.502 171.202,7.838 C170.881,8.174 170.629,8.565 170.445,9.01 C170.26,9.455 170.151,9.93 170.118,10.434 L177.603,10.434 C177.569,9.93 177.455,9.451 177.262,8.997 Z M177.779,17.365 C176.804,18.104 175.578,18.474 174.099,18.474 C173.057,18.474 172.155,18.305 171.39,17.969 C170.625,17.634 169.983,17.163 169.462,16.559 C168.941,15.953 168.55,15.231 168.29,14.391 C168.03,13.551 167.882,12.635 167.849,11.644 C167.849,10.652 168,9.745 168.303,8.922 C168.605,8.099 169.03,7.385 169.576,6.779 C170.121,6.174 170.768,5.704 171.516,5.368 C172.263,5.032 173.082,4.863 173.973,4.863 C175.133,4.863 176.094,5.104 176.859,5.582 C177.623,6.061 178.237,6.67 178.699,7.409 C179.161,8.149 179.48,8.955 179.657,9.829 C179.833,10.703 179.905,11.535 179.87,12.324 L170.118,12.324 C170.1,12.896 170.167,13.438 170.319,13.949 C170.47,14.463 170.713,14.916 171.05,15.311 C171.386,15.705 171.814,16.021 172.335,16.256 C172.856,16.491 173.469,16.609 174.175,16.609 C175.082,16.609 175.826,16.399 176.406,15.979 C176.985,15.559 177.368,14.92 177.552,14.063 L179.669,14.063 C179.383,15.526 178.753,16.625 177.779,17.365 L177.779,17.365 Z" id="Fill-34"></path>
            <path d="M184.029,5.166 L184.029,7.914 L184.079,7.914 C184.6,6.856 185.239,6.074 185.995,5.57 C186.75,5.066 187.708,4.83 188.868,4.863 L188.868,7.133 C188.011,7.133 187.28,7.25 186.675,7.484 C186.07,7.721 185.582,8.065 185.213,8.519 C184.843,8.973 184.575,9.523 184.407,10.169 C184.239,10.817 184.155,11.56 184.155,12.4 L184.155,18.196 L182.012,18.196 L182.012,5.166 L184.029,5.166" id="Fill-35"></path>
            <path d="M200.398,9.791 C200.238,9.211 199.995,8.695 199.667,8.241 C199.339,7.787 198.919,7.426 198.407,7.157 C197.894,6.889 197.293,6.754 196.605,6.754 C195.882,6.754 195.269,6.897 194.765,7.183 C194.261,7.469 193.849,7.842 193.53,8.305 C193.21,8.767 192.98,9.291 192.837,9.879 C192.694,10.468 192.622,11.065 192.622,11.669 C192.622,12.308 192.699,12.925 192.85,13.522 C193,14.117 193.241,14.643 193.568,15.096 C193.896,15.55 194.32,15.916 194.84,16.193 C195.362,16.47 195.992,16.609 196.731,16.609 C197.47,16.609 198.087,16.466 198.583,16.18 C199.078,15.895 199.478,15.517 199.781,15.046 C200.082,14.576 200.301,14.037 200.436,13.434 C200.57,12.828 200.637,12.207 200.637,11.568 C200.637,10.963 200.557,10.371 200.398,9.791 Z M192.699,0.201 L192.699,6.931 L192.748,6.931 C193.102,6.209 193.656,5.684 194.412,5.356 C195.168,5.027 196,4.863 196.908,4.863 C197.915,4.863 198.793,5.049 199.541,5.418 C200.288,5.788 200.911,6.288 201.406,6.918 C201.902,7.548 202.276,8.275 202.528,9.098 C202.78,9.922 202.906,10.795 202.906,11.719 C202.906,12.644 202.784,13.518 202.54,14.34 C202.296,15.164 201.926,15.882 201.431,16.495 C200.936,17.108 200.314,17.592 199.566,17.944 C198.819,18.297 197.949,18.474 196.957,18.474 C196.638,18.474 196.282,18.44 195.886,18.373 C195.492,18.305 195.101,18.196 194.714,18.045 C194.328,17.895 193.962,17.689 193.619,17.428 C193.274,17.168 192.984,16.844 192.748,16.457 L192.699,16.457 L192.699,18.196 L190.556,18.196 L190.556,0.201 L192.699,0.201 L192.699,0.201 Z" id="Fill-36"></path>
            <path d="M205.552,18.196 L207.694,18.196 L207.694,5.166 L205.552,5.166 L205.552,18.196 Z M205.552,2.822 L207.694,2.822 L207.694,0.201 L205.552,0.201 L205.552,2.822 Z" id="Fill-37"></path>
            <polygon id="Fill-38" points="211.147 18.196 213.288 18.196 213.288 0.201 211.147 0.201"></polygon>
            <path d="M218.417,13.572 C218.577,14.151 218.821,14.668 219.148,15.121 C219.476,15.575 219.896,15.937 220.409,16.205 C220.92,16.475 221.521,16.609 222.21,16.609 C222.933,16.609 223.546,16.466 224.05,16.18 C224.554,15.895 224.966,15.522 225.286,15.059 C225.604,14.597 225.835,14.072 225.978,13.484 C226.12,12.896 226.193,12.299 226.193,11.693 C226.193,11.056 226.117,10.438 225.965,9.842 C225.815,9.245 225.575,8.72 225.247,8.266 C224.919,7.813 224.495,7.447 223.975,7.17 C223.453,6.893 222.824,6.754 222.084,6.754 C221.362,6.754 220.748,6.897 220.245,7.183 C219.741,7.469 219.337,7.847 219.035,8.317 C218.733,8.787 218.514,9.324 218.379,9.93 C218.245,10.535 218.178,11.156 218.178,11.795 C218.178,12.4 218.257,12.992 218.417,13.572 Z M226.117,18.196 L226.117,16.432 L226.067,16.432 C225.713,17.154 225.16,17.676 224.403,17.994 C223.647,18.314 222.815,18.474 221.908,18.474 C220.9,18.474 220.022,18.289 219.274,17.919 C218.527,17.55 217.905,17.054 217.41,16.432 C216.913,15.811 216.539,15.088 216.287,14.265 C216.036,13.442 215.91,12.568 215.91,11.644 C215.91,10.72 216.032,9.846 216.275,9.023 C216.519,8.199 216.888,7.481 217.384,6.867 C217.879,6.254 218.501,5.768 219.249,5.406 C219.996,5.045 220.866,4.863 221.858,4.863 C222.194,4.863 222.554,4.899 222.941,4.965 C223.328,5.032 223.714,5.146 224.101,5.305 C224.487,5.465 224.852,5.675 225.197,5.936 C225.541,6.195 225.831,6.52 226.067,6.905 L226.117,6.905 L226.117,0.201 L228.259,0.201 L228.259,18.196 L226.117,18.196 L226.117,18.196 Z" id="Fill-39"></path>
            <path d="M240.331,18.196 L240.331,16.13 L240.281,16.13 C239.828,16.936 239.247,17.528 238.541,17.906 C237.836,18.285 237.004,18.474 236.047,18.474 C235.19,18.474 234.476,18.36 233.905,18.133 C233.333,17.906 232.871,17.583 232.518,17.163 C232.165,16.743 231.917,16.243 231.775,15.664 C231.632,15.084 231.561,14.442 231.561,13.735 L231.561,5.166 L233.703,5.166 L233.703,13.987 C233.703,14.794 233.938,15.433 234.409,15.902 C234.878,16.373 235.526,16.609 236.349,16.609 C237.004,16.609 237.572,16.508 238.05,16.307 C238.53,16.105 238.928,15.818 239.247,15.449 C239.567,15.08 239.806,14.647 239.966,14.151 C240.125,13.656 240.205,13.113 240.205,12.525 L240.205,5.166 L242.347,5.166 L242.347,18.196 L240.331,18.196" id="Fill-40"></path>
            <path d="M247.589,5.166 L247.589,7.233 L247.64,7.233 C248.531,5.654 249.942,4.863 251.874,4.863 C252.731,4.863 253.445,4.982 254.016,5.217 C254.587,5.452 255.049,5.779 255.403,6.199 C255.755,6.619 256.003,7.119 256.146,7.699 C256.288,8.279 256.36,8.922 256.36,9.627 L256.36,18.196 L254.218,18.196 L254.218,9.375 C254.218,8.568 253.983,7.93 253.512,7.46 C253.041,6.99 252.395,6.754 251.572,6.754 C250.916,6.754 250.349,6.856 249.87,7.057 C249.392,7.258 248.993,7.544 248.673,7.914 C248.354,8.283 248.115,8.716 247.955,9.211 C247.795,9.707 247.715,10.249 247.715,10.837 L247.715,18.196 L245.574,18.196 L245.574,5.166 L247.589,5.166" id="Fill-41"></path>
            <path d="M266.63,16.016 C267.125,15.723 267.525,15.336 267.828,14.858 C268.13,14.378 268.352,13.836 268.495,13.232 C268.638,12.627 268.709,12.022 268.709,11.416 C268.709,10.846 268.642,10.283 268.508,9.729 C268.373,9.174 268.159,8.674 267.866,8.229 C267.571,7.783 267.189,7.426 266.718,7.157 C266.247,6.889 265.676,6.754 265.004,6.754 C264.316,6.754 263.728,6.885 263.241,7.145 C262.753,7.405 262.354,7.754 262.043,8.192 C261.732,8.628 261.505,9.132 261.363,9.703 C261.22,10.275 261.149,10.871 261.149,11.492 C261.149,12.08 261.207,12.668 261.325,13.256 C261.443,13.845 261.644,14.378 261.93,14.858 C262.215,15.336 262.593,15.723 263.064,16.016 C263.535,16.311 264.122,16.457 264.828,16.457 C265.534,16.457 266.134,16.311 266.63,16.016 Z M269.365,21.876 C268.39,22.935 266.861,23.464 264.778,23.464 C264.173,23.464 263.555,23.397 262.925,23.262 C262.295,23.127 261.724,22.909 261.211,22.608 C260.699,22.305 260.275,21.909 259.939,21.422 C259.603,20.935 259.418,20.338 259.384,19.633 L261.527,19.633 C261.543,20.02 261.665,20.347 261.892,20.615 C262.119,20.885 262.396,21.104 262.724,21.272 C263.051,21.44 263.409,21.561 263.795,21.637 C264.181,21.712 264.551,21.75 264.904,21.75 C265.61,21.75 266.205,21.628 266.694,21.385 C267.18,21.141 267.583,20.805 267.903,20.377 C268.222,19.947 268.453,19.432 268.596,18.826 C268.739,18.222 268.81,17.559 268.81,16.836 L268.81,15.979 L268.76,15.979 C268.39,16.785 267.831,17.377 267.084,17.756 C266.336,18.133 265.542,18.322 264.703,18.322 C263.728,18.322 262.879,18.147 262.157,17.793 C261.434,17.441 260.829,16.966 260.342,16.369 C259.855,15.774 259.49,15.076 259.245,14.277 C259.002,13.48 258.88,12.635 258.88,11.744 C258.88,10.972 258.981,10.178 259.183,9.363 C259.384,8.548 259.72,7.809 260.191,7.145 C260.662,6.482 261.283,5.936 262.056,5.506 C262.828,5.078 263.778,4.863 264.904,4.863 C265.727,4.863 266.483,5.045 267.172,5.406 C267.861,5.768 268.399,6.309 268.786,7.031 L268.81,7.031 L268.81,5.166 L270.827,5.166 L270.827,17.088 C270.827,19.221 270.339,20.817 269.365,21.876 L269.365,21.876 Z" id="Fill-42"></path>
        </g>
    </g>
</svg>