<?xml version="1.0" encoding="utf-8"?><svg id="Ebene_1" data-name="Ebene 1" xmlns="http://www.w3.org/2000/svg" viewBox="0 0 715.41 111.26"><defs><style>.cls-1,.cls-2{fill:#00468e;}.cls-1{fill-rule:evenodd;}</style></defs><title>FSZentrum</title><path class="cls-1" d="M83.63,96.57H146.8l-3.53,8.34H104.15L94.85,127h11.22l5.13-11.54h5.13L111.84,127h21.8l-17,40.08s-5.1,10.45,4.49,11.22c11.86,1,18-10.26,18-10.26l17.63-41H167l-25,58-6.09,2.88,3.21-8s-7.38,5.13-20.2,5.13-17-7.37-12.18-18.92,14.43-34,14.43-34H109.28l-4.81,11.23H99.34l4.81-11.23H92.6L80.1,161H69.84L82,132.16H72.08L74.65,127h9.94l9.3-22.12h-17Z" transform="translate(-60.54 -83.26)"/><path class="cls-1" d="M64.25,138.89a51.92,51.92,0,1,1,51.92,51.91A51.92,51.92,0,0,1,64.25,138.89Zm-3.71,0a55.63,55.63,0,1,1,55.64,55.63A55.64,55.64,0,0,1,60.54,138.89Z" transform="translate(-60.54 -83.26)"/><path class="cls-2" d="M194.54,159.86l.39-45.3h31.29V124H206.78l-.13,8.71H226v9H206.58l-.13,18.13Z" transform="translate(-60.54 -83.26)"/><path class="cls-2" d="M236.43,137.54l-3.86-6.35q9-5.5,17.55-5.5a10.83,10.83,0,0,1,7.4,2.36q2.68,2.36,2.68,6.94v16q0,2.23,1.9,2.23a2.07,2.07,0,0,0,1.37-.39l1.24,6.22a11.71,11.71,0,0,1-4.19,1.44,23.34,23.34,0,0,1-4.58.59q-5,0-5.63-3.6a15.1,15.1,0,0,1-9.56,3.6,10.83,10.83,0,0,1-7.46-2.55,8.8,8.8,0,0,1-2.88-6.94q0-4.84,2.75-7.46,2.42-2.29,8.12-3.73a48.38,48.38,0,0,1,8.31-1.31V137.8q0-3.86-3.67-3.86a11.82,11.82,0,0,0-4.91,1.24Zm13.16,13.88v-6.74a15.25,15.25,0,0,1-2,.26,9,9,0,0,0-4.39,1.38,4.46,4.46,0,0,0-2.23,3.93,2.84,2.84,0,0,0,1.24,2.46,4.63,4.63,0,0,0,2.75.88,6.52,6.52,0,0,0,3.11-.79Q249.59,152,249.59,151.41Z" transform="translate(-60.54 -83.26)"/><path class="cls-2" d="M294.7,150.1l4.06,7.53a22.36,22.36,0,0,1-12.11,3.4q-8.05,0-12.9-4.39-5.11-4.52-5.11-12.5,0-8.31,5.14-13.39t13.58-5.07a20.43,20.43,0,0,1,11.19,2.88L294.9,136a14.07,14.07,0,0,0-5.37-1.31,9.78,9.78,0,0,0-6.91,2.39,8.35,8.35,0,0,0-2.59,6.45,8.38,8.38,0,0,0,8.51,8.45A14.76,14.76,0,0,0,294.7,150.1Z" transform="translate(-60.54 -83.26)"/><path class="cls-2" d="M303.93,159.86l.33-49.1h11.39l-.07,19.71q4.91-4.78,10.67-4.78,10.8,0,10.8,12.9,0,6.74-.13,21.28H325.54q.13-12.7.13-19.58,0-4.78-4.12-4.78-2.82,0-6,3l-.26,21.34Z" transform="translate(-60.54 -83.26)"/><path class="cls-2" d="M343.15,158.88l2.55-7.53a25.51,25.51,0,0,0,9.3,1.83,5,5,0,0,0,2.59-.72,2.15,2.15,0,0,0,1.21-1.9,1.88,1.88,0,0,0-1-1.7,26.56,26.56,0,0,0-5.37-1.9,14,14,0,0,1-6.55-3.47,10.43,10.43,0,0,1,2.16-15.32,18,18,0,0,1,9.82-2.49,34.94,34.94,0,0,1,7.46.79,14.94,14.94,0,0,1,4.26,1.38l-2.09,7.07a33.73,33.73,0,0,0-8.05-1.37,6.06,6.06,0,0,0-2.75.59,2.22,2.22,0,0,0-1.44,2q0,2.1,4.19,2.95,5.5,1.11,8,3.08,3.14,2.62,3.14,7.66,0,6-4.71,8.77Q361.94,161,355.19,161a37.18,37.18,0,0,1-7.27-.79A19.05,19.05,0,0,1,343.15,158.88Z" transform="translate(-60.54 -83.26)"/><path class="cls-2" d="M401.41,150.1l4.06,7.53a22.36,22.36,0,0,1-12.11,3.4q-8.05,0-12.9-4.39-5.11-4.52-5.11-12.5,0-8.31,5.14-13.39t13.58-5.07a20.43,20.43,0,0,1,11.19,2.88L401.61,136a14.07,14.07,0,0,0-5.37-1.31,9.78,9.78,0,0,0-6.91,2.39,8.35,8.35,0,0,0-2.59,6.45,8.38,8.38,0,0,0,8.51,8.45A14.76,14.76,0,0,0,401.41,150.1Z" transform="translate(-60.54 -83.26)"/><path class="cls-2" d="M410.64,159.86l.33-49.1h11.39l-.07,19.71q4.91-4.78,10.67-4.78,10.8,0,10.8,12.9,0,6.74-.13,21.28H432.25q.13-12.7.13-19.58,0-4.78-4.12-4.78-2.82,0-6,3L422,159.86Z" transform="translate(-60.54 -83.26)"/><path class="cls-2" d="M473.49,148.21l.26-21.34h11.39l-.26,33H473.49v-3.6Q468.58,161,462.82,161q-10.8,0-10.8-12.9,0-6.74.13-21.28h11.39q-.13,12.7-.13,19.58,0,4.78,4.13,4.78Q470.35,151.22,473.49,148.21Z" transform="translate(-60.54 -83.26)"/><path class="cls-2" d="M492.93,159.86l.26-49.1h11.39l-.26,49.1Z" transform="translate(-60.54 -83.26)"/><path class="cls-2" d="M511.92,135.64v-8.77h26.51l2.29,7.59-15.58,16.89,14.34-.26v8.77h-27.1l-2.23-7.46,15.58-17Z" transform="translate(-60.54 -83.26)"/><path class="cls-2" d="M573.33,149.52l3.8,6.61q-5.76,4.91-15,4.91-8.45,0-13.22-5.3a16.9,16.9,0,0,1-4.19-11.65,18.3,18.3,0,0,1,5.07-13,16.66,16.66,0,0,1,12.67-5.4q16.5,0,16.5,20.23H556.11a6.52,6.52,0,0,0,1.64,4.39q2.09,2.49,6.29,2.49A16.49,16.49,0,0,0,573.33,149.52Zm-17.09-10.28h12.5a7.57,7.57,0,0,0-1.37-4.62,4.72,4.72,0,0,0-4.06-1.87,6.27,6.27,0,0,0-4.52,1.93A9.07,9.07,0,0,0,556.24,139.24Z" transform="translate(-60.54 -83.26)"/><path class="cls-2" d="M585.31,159.86l.26-33H597v3.6q4.91-4.78,10.67-4.78,10.8,0,10.8,12.9,0,6.74-.13,21.28H606.91q.13-12.7.13-19.58,0-4.78-4.12-4.78-2.82,0-6,3l-.26,21.34Z" transform="translate(-60.54 -83.26)"/><path class="cls-2" d="M622.49,135.11l.26-8.25h4.84l.26-11.2h11l-.26,11.2H648l-.2,8.25H638.4q0,2.49-.16,6.78t-.16,5.47q0,4.26,3.27,4.26a9,9,0,0,0,4.19-1.57l2.49,7.73A21.31,21.31,0,0,1,636.77,161q-6.29,0-8.31-3.86-1.38-2.62-1.37-9.56,0-2,.16-6.12t.16-6.38Z" transform="translate(-60.54 -83.26)"/><path class="cls-2" d="M653.2,159.86l.26-33h11.39v4.65H665q3.34-5.56,8.38-5.56a17.18,17.18,0,0,1,3.73.39l-1.51,11.26a14.51,14.51,0,0,0-4.06-.66,7.91,7.91,0,0,0-4.78,1.7q-2,1.38-2,2.16l-.2,19.05Z" transform="translate(-60.54 -83.26)"/><path class="cls-2" d="M701.45,148.21l.26-21.34H713.1l-.26,33H701.45v-3.6Q696.54,161,690.78,161q-10.8,0-10.8-12.9,0-6.74.13-21.28H691.5q-.13,12.7-.13,19.58,0,4.78,4.13,4.78Q698.3,151.22,701.45,148.21Z" transform="translate(-60.54 -83.26)"/><path class="cls-2" d="M732.48,159.86H721.09l.26-33h11.39v3.93q5.11-5.11,10.8-5.11a10.58,10.58,0,0,1,9.36,5.11q6-5.11,12.31-5.11,5.5,0,8.25,3.6,2.49,3.21,2.49,8.77,0,7.27-.13,21.8H764.43q.13-12.7.13-19.12,0-5.24-4.12-5.24-3.14,0-6,3l-.26,21.34H742.76q.13-12.7.13-19.12,0-5.24-4.12-5.24-3.14,0-6,3Z" transform="translate(-60.54 -83.26)"/></svg>
