<?xml version="1.0" encoding="UTF-8"?>
<svg xmlns="http://www.w3.org/2000/svg" viewBox="0 0 395.37 181.95">
  <path d="M145.59 163.76a83.83 83.83 0 0 1-50.95 19.46 85.76 85.76 0 0 1-52.94-15.54A86.89 86.89 0 0 1 22 148a89.46 89.46 0 0 1-7.33-11.76 99.32 99.32 0 0 1-5.56-12.64A96.19 96.19 0 0 1 6 69.21 86.27 86.27 0 0 1 10.31 56c.85-2.17 1.88-4.26 2.89-6.37s2.2-4.11 3.45-6.09A89 89 0 0 1 35 22.34 90.22 90.22 0 0 1 59 7.8c2.17-.93 4.4-1.68 6.64-2.43S70.16 4 72.47 3.55a84.51 84.51 0 0 1 14-2 89.4 89.4 0 0 1 28 2.67 92.43 92.43 0 0 1 13.29 4.62c2.12 1 4.28 1.89 6.3 3.09l3.07 1.71c1 .54 2 1.25 3 1.87a87.58 87.58 0 0 1 20.64 18.59l1.11 1.34 1 1.41 2 2.82a34.29 34.29 0 0 1 1.86 2.92l1.78 3c.62 1 1.07 2 1.61 3l1.55 3.07c.95 2.09 1.75 4.24 2.62 6.35a.29.29 0 0 1-.16.39.3.3 0 0 1-.38-.14 91.8 91.8 0 0 0-36.11-38.72 88.35 88.35 0 0 0-99 7.24A89.11 89.11 0 0 0 20.7 46.13a84.32 84.32 0 0 0-6.65 11.51A82.92 82.92 0 0 0 10.92 123a84.05 84.05 0 0 0 5.88 12.11A79.45 79.45 0 0 0 24.58 146a82.53 82.53 0 0 0 9.35 9.53 93.1 93.1 0 0 0 10.58 8A103.8 103.8 0 0 0 56.07 170a99 99 0 0 0 12.34 4.73 81.3 81.3 0 0 0 12.91 2.86 85.94 85.94 0 0 0 13.22 1 91.37 91.37 0 0 0 26.3-3.89 96.09 96.09 0 0 0 24.39-11.4.3.3 0 0 1 .36.48Z" transform="translate(-3.46 -1.34)" style="fill:#0069b4"/>
  <path d="M136.77 78.54c-3.06 3.54-6.91 8.12-6.76 8.14a11.39 11.39 0 0 0 2.22.16c.77-.83 4.79-5.41 7.28-8.24 1.15-1.3 2-2.23 2-2.24.28-.23-.59-1.75-1.05-1.9a53 53 0 0 0-3.72 4.08ZM118.9 84.07l8 .35c.13 0 2.62-2.84 5.17-5.82 2.76-3.23 5.66-6.67 5.9-7a12 12 0 0 0-11.75 1.63 21.39 21.39 0 0 0-4.67 5.36 27.7 27.7 0 0 0-2.65 5.48ZM87.5 69.13a13.75 13.75 0 0 1 1.83.29c.29.08.62.17.94.28a3.8 3.8 0 0 1 .59.23A9.91 9.91 0 0 1 92.74 71a7.56 7.56 0 0 1 .89.74s.78-.61 1.7-1.37c.7-.59 2.22-1.87 2.63-2.26a21.28 21.28 0 0 1 2.29 1.5l-1 .9c-1.68 1.56-5.12 4.85-8.34 8-3.8 3.7-7.36 7.26-7.61 7.45 0 .18.32.69 2.44.45.31-.06 3.84-4.06 7.3-7.93 3.38-3.77 6.74-7.46 7.15-7.44.61 0 2 1.91 2.23 2.1a69.34 69.34 0 0 0-4.9 5.43c-3.14 3.72-6.75 8.13-8.15 9.44.3.26 2.35-.41 2.35-.41s4.54-5.23 7.89-9.07c1.51-1.72 2.78-3.18 3.28-3.77.22.23 1.67 2.41 1.21 3.21a7.65 7.65 0 0 1-.49.6c-1.06 1.23-3.4 3.81-4.24 4.12a17.31 17.31 0 0 0 5.46-.18c.33.06.32-1.55.47-1.73s.23-1 .58-2.21A21.84 21.84 0 0 1 108.5 73a19.43 19.43 0 0 1 2.74-3.26 25.87 25.87 0 0 1 6.19-4.29c-.18-.26-.93-.21-1.17-.21S88.51 68.92 87.64 69ZM112.69 84.58a37.75 37.75 0 0 0 4-.12c.1 0 .86-2 1.39-3 .64-1.14 1.3-2.22 1.73-2.9a5.15 5.15 0 0 1 .49-.68 6.91 6.91 0 0 0-2.48.65 10.49 10.49 0 0 0-2.41 1.53 9.83 9.83 0 0 0-2.72 4.52ZM55.22 32a12.07 12.07 0 0 0-1.34 1.29 2.47 2.47 0 0 0-1 2.22c.06.67 0 1 1.35 1 .25 0 3.76-.33 3.57-1.63-.1-.66-.43-3.21-.43-3.21s1.2-1.93 1.13-1.95c-.35.28-2.89 2.03-3.28 2.28ZM101 63a14.86 14.86 0 0 1 0-2.16c-.31 0-1.94.23-2.5.29-1.41.17-10.82 1.42-10.84 1.85 0 .25-.57.95-.11 1.43.18.19 13.45-1.23 13.45-1.41ZM76.1 34.12c-.36-.19 3.22-1.94 2.92-2.12A6.8 6.8 0 0 1 78 30.76c-.36-.6-.59-1.4-.91-2-1.11 1.38-3 1.62-5 3.53-.56.52-.38 4.1 0 4.12.21 0 2.24-.62 3.1-.86.45-.12 2.21-.35 2.21-.35.27 0 2-.16 2.28-.15s2-.08 2.22-.07c1.1 0 2.53.1 2.54-.12-.07-.56-7.44-.25-8.34-.74ZM66.47 61.08v-.29c0-.4-.16-1-.17-1.53-.11-.14 0-.17 0-.18h-.15c-.27 0-9.78.48-10.3.68 0 0 0 .48-.07 1a5 5 0 0 0 0 1.58c.17-.12 10-.87 10.27-.86s.41-.21.42-.4ZM56.63 65.58l-.33 3c.1.09 11-1.5 11-1.68s-.17-2.11-.19-2.74c-.21-.16-9.96 1.22-10.48 1.42ZM65.92 57.3c.57-.24.4-1.06.41-1.32s-.27-.52-.46-.81l-1.58-.05c-.22 0-6.92.48-8.28.56l-.2 2s9.31-.49 10.11-.38ZM65.19 84.38c.91-.13 4.66-.41 4.66-.41.22 0 .36-1.37.71-2.73 0-.29.49-1.78.76-2.64a4.78 4.78 0 0 1 .19-.56 23.65 23.65 0 0 1 1.75-3.69 17.35 17.35 0 0 0-5.61 4.25l-.13.15a23.24 23.24 0 0 0-2.11 2.6c-1 1.47-1.21 2.16-1.15 2.41s-.26.79.93.62Z" transform="translate(-3.46 -1.34)" style="fill:none"/>
  <path d="M81.07 78.6a14 14 0 0 0-1.58 3.4c-.41 1.29-.37 1.27.59 1.2l2.86-.26c.62-.7 2.35-2.49 4.1-4.29a70.22 70.22 0 0 0 4.84-5.18c-1.22-.53-4.81-.53-8 2a13.19 13.19 0 0 0-2.82 3.2ZM126.69 88.57c-.44 0-45.93.76-45.93.76-.28 0-42.27 3.48-42.27 3.48l72.6-1.7c3.25-.56 9.87-.79 10.62-.89.57-.06 5.4-.58 6.63-.59l2-.65c-.02-.06-2.66-.34-3.65-.41Z" transform="translate(-3.46 -1.34)" style="fill:none"/>
  <path style="fill:none" d="m69.2 59.46-.05-2.52-.1-2.99-1.59-.26-.05 5.77-.05 5.31 1.93-.36-.09-4.95z"/>
  <path d="M82.18 62.23c-.27 0-7.17.44-7.61.66a4.38 4.38 0 0 0 .32 1.75c.2.17 7.22-.73 7.22-.73a8.83 8.83 0 0 0 .07-1.68ZM77.25 83.4c.11-.21.28-.78.57-1.66.38-1.13.72-1.94.49-1.86a5.6 5.6 0 0 0-3.55 2.82l-.62 1.11 2.72-.36c.24-.03.21.02.39-.05ZM74.59 61c.23 0 5.27-.07 7-.22.34 0 .54-.06.54-.1 0-.26.1-1.63.11-1.9s-7.55.21-7.77.41a9.9 9.9 0 0 0 0 1.59c.03.15.07.22.12.22ZM82.23 56.05V54.6h-7.54a3.41 3.41 0 0 0 0 2 72.5 72.5 0 0 0 7.54-.55Z" transform="translate(-3.46 -1.34)" style="fill:none"/>
  <path d="m146.06 69.47-.53.53ZM299.22 93.14c-.83-1.57-1.33-2.32-1.33-2.32-23.15-2-47-2-47.24-2h-28.51s-18.73.41-18.94.4l-14.78.42-20.23 1.13c-.88 0-24.12 1.81-25.19 2.11 0 0-2.75.53-3 .61l-9.85-.2c2.65-.32 10.62-1.23 10.64-1.31a21.79 21.79 0 0 0 2.77-.19c.35 0 17.11-1.72 17.61-2.06l1.28-1.39c-.28-.15-4.76-.7-5-.71s-11-1.15-11-1.15c-.16 0 3.7-4.63 6.52-8l2.9-3.46a25 25 0 0 0-2.53-3.52l-5.2 7c-3 4-6.23 8.33-6.45 8.42-1.2-.32-2.89-.39-3.48-.68 1-1.2 3.81-4.53 6.62-7.79 3.15-3.66 6.33-7.29 7-8 .13-.13 0-.48-.29-.9a7.13 7.13 0 0 0-1.76-1.85l-1.78 2a41.72 41.72 0 0 1-4.42 4.55 13.93 13.93 0 0 1-.84-1.56c.79-.75 2.19-2.09 3.31-3.19 1.48-1.47 2.92-3 2.77-3.07a27.55 27.55 0 0 1-2.91-2.31s-4.29 4.71-5.28 5.57c-.1.09-.16.14-.19.13a.43.43 0 0 1-.19-.12 33.71 33.71 0 0 0-3.22-3 20.44 20.44 0 0 0-4.94-2.56 1.27 1.27 0 0 1 .73-.24s3.58-.3 3.85-.29c0 0 1.59-.16 1.81-.15 0 0 2.38-.15 2.59-.14l13.25-.32c0-.3.2-.24.36-.4 0 0 7.73 0 8.39.11.58-.31 2-1.13 3.22-1.89a11.8 11.8 0 0 0 2.19-1.49s-24.55 1-24.82 1-5.88.22-6.16.21l-5.57.3h-.08c-3.6.2-7.61.43-7.67.45-1 .08-1.1.15-1.42.14s-3 .32-3.31.31c0 0-9.22 1-9.57 1s-6 .65-6.28.64a1.14 1.14 0 0 1-.65-.39L103 61a8.34 8.34 0 0 1 1.26-.2c2.08-.25 6-.6 6-.6v.6c0 .7 0 1.47.85 1.43a14.28 14.28 0 0 1 .31-1.43 1.86 1.86 0 0 1 .24-.51c.31 0 7.62-.72 7.83-.71 0 0 5.08-.47 5.35-.46 0 0 18.64-1.07 18.85-1.06 0 0 3.63-.09 3.85-.08l7.89.05c.16-.15 1.67-.79 1.68-1-.39-.27-7.63-.08-7.9-.09s-6.76.13-7 .12-7.13.35-7.41.34c0 0-12.93.85-13.15.84 0 0-9.58.92-9.63.88a.47.47 0 0 1-.44-.19c0-.11.13-6.5.13-6.5a1.21 1.21 0 0 1 .78-.33l.1-2.71c.13-.08.22 0 .23-.28v-.87c-.72 0-1.16-.41-1.45-.28 0 .37.1 1.32 0 1.62a3.63 3.63 0 0 0 0 1 1.64 1.64 0 0 1-.59 1.11l-.32-.33s-.33-2.91-.32-3.07l-1.34.71a21.1 21.1 0 0 1 .38 2.46c.74.77 1.34.93 1.21 1.74.09.13 0 3.58 0 3.66l-.02 2.14a2.56 2.56 0 0 1-1.1.24c-.27 0-4.65.34-5.23.35-.14.18-1.27.11-1.26-.12s.12-4.92.12-4.92v-.5c0-.27.44-.11.41-.21l.34-.09a5.29 5.29 0 0 1 .35-1.2c.16-.2.15-1 .46-2a5.51 5.51 0 0 1-1.21-.63c0 .21-.34 2.55-.41 2.59a9.55 9.55 0 0 1-.62-3.33l1.34-.07-.9-.91-2.08 1.07h.58l-.93.28s.3 3.16.38 3.53.79.56.78.82l-.22 6.1a1.28 1.28 0 0 1-.64.1c-.28 0-.87.08-1.14.07l-8.14.73c-2.4.21-4.42.39-4.53.38s-.5.23-.48-.33v-.15a6 6 0 0 1 .13-1.8l1.2-.37c-.1-1.18 0-1.84-.06-2.24-.17-.1-1.39 0-1.38-.4v-.91c0-.05 1.3-.17 1.31-.42a9.62 9.62 0 0 0-.41-2c-.49 0-.61.08-.87-.14l.09-1.68v-1.07l.25-5.92a1.6 1.6 0 0 1 .84-1.63c.39-.29.93-.49 1.26-.76s1.22-1 .72-1.72c-.32-.48-.92-.59-.85-.84a7.06 7.06 0 0 0 .13-3.25A7.93 7.93 0 0 0 86.84 32c-2.1-2.65-6.41-3.22-7.69-5.83a3.65 3.65 0 0 1-.53-1.6c0-.26.24-.47.25-.73s-.34-1.76-.33-2 .41-.43.53-.74-.73-3.51-1.08-3.52-.48 2.26-.52 2.47-.37.12-.48.15a16.19 16.19 0 0 1 0 2c-.1.4 1.19.39.87.83 1.21.23-.6.81-.69 1.33a9.14 9.14 0 0 1-.87 2.58 7.38 7.38 0 0 1-1 1.52 8.37 8.37 0 0 1-1.3 1.2c-.55.42-1.28.89-1.82 1.22a4.42 4.42 0 0 0-1.87 1.76c-.11.24-.14.4-.29.7-.17-.48-.22-1-.31-1.16a7.22 7.22 0 0 0-3-3.68 13.23 13.23 0 0 1-4.25-2.5c-.81-.87-.74-2.69-1.08-3.42h-.05c.08-.13.05-.41.38-.18l-.08-1c-.35-.55.25-1.36-.09-1.42a4.24 4.24 0 0 1-.65-.54c-.24-.05-.18-.8-.51-3l-.86 3.93.16 1.36c.49.26.94.61 1.45.88-.28.12-.66.47-1 .35a13.32 13.32 0 0 1-.76 4A5.93 5.93 0 0 1 57 29.25c-3.76 2-4.31 3-5 4.28a6.69 6.69 0 0 0-.54 1.81l-.11 1.33c0 .26.16 2.1.15 2.37a1.63 1.63 0 0 1-.27.83c-.3.41-.9.66-1.08 1.07-.26.58-.09.66-.14 1.08s.5.71.5.71l1.59.27c-.34-.45-.55-.95.22-1.18a55.85 55.85 0 0 1 8.93-2s4.13-.32 4.77-.29a21.6 21.6 0 0 1 2.45 0 9 9 0 0 1 1.7.35 1.44 1.44 0 0 1 .63 1.19c0 .37.06 3.32 0 5l2.17-.08c-.33-1.46-1.23-3.67-.5-4.19a11.24 11.24 0 0 1 4.86-1.53c1.12-.14 3.6-.07 4.63-.09l4.27.28c.31.33-3.06.95-3.07 1.15v10.83a10.4 10.4 0 0 1-1.46 0l-6.12-.21c-.12.11-2.64-1.66-3-1.67L70 52.29c-.17 0-.29-11.08-.57-11.46-.13-.16-1.4 5-1.73 5h-.86l-.39 7.06a.49.49 0 0 1-.19.14.84.84 0 0 0-.68-.23c-.28 0-.62.3-.89.29s-9.2.63-9.26.66c-.64-.62-.27-11.27-.56-11.28a15 15 0 0 0-2.35 1.41s-.06 8.75-.17 16.12l-.91.21-.22.62-.83 2.35 1.82-.18c0 2.53-.07 5.23-.08 6.7v.17c0 .23-8.35 1.37-11.24 1.66-.5 0-1.77 4.6-1 4.79 8.69-2.26 8.54.84 8.67 1 0 .42 3.49-1.06 4.1-.89.91-.3 10.44-2.35 10.86-2.44 1.22-.27 3.47-.9 3.74-.9a.36.36 0 0 1 .31.2 45.88 45.88 0 0 0-4.31 4.6c-.11.15-.31.35-.52.25s-.68-.46-.94-.62c-.75-.18-.94-.41-1.76-.61a12.49 12.49 0 0 0-3.14-.16 8.85 8.85 0 0 0-4.44 1.86 7.06 7.06 0 0 0-1.78 2.09c-.1.19-.5 1-.62 1.15-.38.83-.77 2-.87 2.31a18.36 18.36 0 0 0-.56 2.08c0 .26-.2.92-.44.91s-.67.13-.94.13a6.84 6.84 0 0 0-1.19.13l-1.51.25 6-7.17-3.27.39-1.74 2-3.87 5.32-1 .19 2.93-4.3-2.2.08-3.59 4.7c-.76.13-1.27.2-1.38.21V101h361.28v-7.87ZM57.78 34.89c.19 1.3-3.32 1.63-3.57 1.63-1.35 0-1.29-.32-1.35-1a2.47 2.47 0 0 1 1-2.22 12.07 12.07 0 0 1 1.36-1.3c.39-.27 2.93-2 3.26-2.29.07 0-1.19 1.89-1.13 1.95s.33 2.57.43 3.23Zm24 .14c-.27 0-1.94.08-2.22.07s-2 .16-2.28.15c0 0-1.76.23-2.21.35-.86.24-2.89.86-3.1.86-.37 0-.55-3.6 0-4.12 2-1.91 3.92-2.15 5-3.53.32.55.55 1.35.91 2A6.8 6.8 0 0 0 79 32c.3.18-3.28 1.93-2.92 2.12.91.49 8.27.18 8.25.79.01.22-1.42.16-2.52.09ZM56 55.68c1.36-.08 8.06-.57 8.28-.56l1.58.05c.19.29.47.57.46.81s.16 1.08-.41 1.32c-.8-.11-10.11.39-10.11.39Zm-.24 5.11c0-.55.07-1 .07-1 .52-.2 10-.69 10.3-.68h.15s-.12 0 0 .18c0 .48.12 1.13.17 1.53v.29c0 .06-.07.44-.39.43s-10.1.74-10.27.86a5 5 0 0 1-.02-1.61Zm.53 7.79.33-3c.52-.2 10.27-1.62 10.44-1.42 0 .63.2 2.48.19 2.74S56.4 68.67 56.3 68.58Zm84.18 5.88c.46.15 1.33 1.67 1.05 1.9 0 0-.87.94-2 2.24-2.52 2.83-6.52 7.4-7.29 8.24a11.39 11.39 0 0 1-2.22-.16c-.15 0 3.7-4.6 6.76-8.14a53 53 0 0 1 3.71-4.08Zm-14.23-1.26A12 12 0 0 1 138 71.57c-.24.36-3.14 3.8-5.9 7-2.55 3-5 5.82-5.17 5.82l-8-.35a27.7 27.7 0 0 1 2.68-5.51 21.39 21.39 0 0 1 4.63-5.33Zm-5.95 4.72a5.15 5.15 0 0 0-.49.68c-.43.68-1.09 1.76-1.73 2.9-.53 1-1.29 3-1.39 3a37.75 37.75 0 0 1-4 .12 9.83 9.83 0 0 1 2.71-4.48 10.49 10.49 0 0 1 2.41-1.53 6.91 6.91 0 0 1 2.49-.69Zm-4-12.72c.24 0 1 0 1.17.21a25.87 25.87 0 0 0-6.19 4.29 19.43 19.43 0 0 0-2.77 3.3 21.84 21.84 0 0 0-2.6 5.64c-.35 1.16-.54 2-.58 2.21s-.14 1.79-.47 1.73a17.31 17.31 0 0 1-5.46.18c.84-.31 3.18-2.89 4.24-4.12a7.65 7.65 0 0 0 .49-.6c.46-.8-1-3-1.21-3.21-.5.59-1.77 2-3.28 3.77-3.35 3.84-7.87 9-7.89 9.07s-2 .67-2.35.41c1.4-1.31 5-5.72 8.15-9.44a69.34 69.34 0 0 1 4.9-5.43c-.27-.19-1.62-2.08-2.23-2.1-.41 0-3.77 3.67-7.15 7.44-3.46 3.87-7 7.87-7.3 7.93-2.12.24-2.46-.27-2.44-.45.25-.19 3.81-3.75 7.61-7.45 3.22-3.15 6.66-6.44 8.34-8l1-.9A21.28 21.28 0 0 0 98 68.14c-.41.39-1.93 1.67-2.63 2.26-.92.76-1.69 1.37-1.7 1.37a7.56 7.56 0 0 0-.89-.74 9.91 9.91 0 0 0-1.88-1.1 3.8 3.8 0 0 0-.59-.23c-.32-.11-.65-.2-.94-.28a13.75 13.75 0 0 0-1.83-.29l.14-.13c.83-.08 28.32-3.81 28.58-3.8ZM87.69 63c0-.43 9.43-1.68 10.84-1.85.56-.06 2.19-.31 2.5-.29A14.86 14.86 0 0 0 101 63c0 .14-13.25 1.56-13.4 1.41-.48-.41.09-1.14.09-1.41ZM83.9 75.4c3.17-2.51 6.76-2.51 8-2a70.22 70.22 0 0 1-4.9 5.2c-1.75 1.8-3.48 3.59-4.1 4.29l-2.86.26c-1 .07-1 .09-.59-1.2a14 14 0 0 1 1.58-3.35 13.19 13.19 0 0 1 2.87-3.2Zm-9-10.76a4.38 4.38 0 0 1-.32-1.75c.44-.22 7.34-.67 7.61-.66a8.83 8.83 0 0 1-.07 1.68s-7.03.9-7.23.73Zm-.23-10.08h7.54v1.45a72.5 72.5 0 0 1-7.62.53 3.41 3.41 0 0 1 .07-1.98Zm-.22 4.64c.22-.2 7.78-.66 7.77-.41s-.1 1.64-.11 1.9c0 0-.2.07-.54.1-1.7.15-6.74.23-7 .22 0 0-.09-.08-.12-.22a9.9 9.9 0 0 1-.01-1.59Zm.32 23.5a5.6 5.6 0 0 1 3.55-2.82c.23-.08-.11.73-.49 1.86-.29.88-.46 1.45-.57 1.66s-.15 0-.39 0l-2.72.36Zm-3.9-21.91v-5.76l1.59.26.1 3v2.51l.09 5-1.93.36Zm-5.49 20.56a23.24 23.24 0 0 1 2.11-2.6l.13-.15a17.35 17.35 0 0 1 5.61-4.25A23.65 23.65 0 0 0 71.49 78a4.78 4.78 0 0 0-.19.56c-.27.86-.72 2.35-.76 2.64-.35 1.36-.49 2.74-.71 2.73 0 0-3.75.28-4.66.41-1.2.17-.89-.28-1-.62s.18-.9 1.21-2.37Zm56.33 8.87c-.75.1-7.37.33-10.62.89l-72.6 1.7s42-3.49 42.27-3.48c0 0 45.49-.8 45.93-.76 1 .07 3.63.35 3.65.41l-2 .65c-1.23.01-6.06.53-6.63.59Z" transform="translate(-3.46 -1.34)" style="fill:#0069b4"/>
  <path style="fill:#0069b4" d="m106.51 46-1.11 1.43 2.01-.73-.9-.7z"/>
  <path d="M36.89 109h10.38v17.45h12.1V109h10.37v45.75H59.37V135.6h-12.1v19.13H36.89Z" transform="translate(-3.46 -1.34)" style="fill:#f18700"/>
  <path d="M88 117.22h-2.77v13.3H88a6.35 6.35 0 0 0 4.71-1.61 6.53 6.53 0 0 0 1.59-4.77 7.45 7.45 0 0 0-1.62-5.14 6 6 0 0 0-4.68-1.78Z" transform="translate(-3.46 -1.34)" style="fill:none"/>
  <path d="M100.83 112.54Q96.92 109 88.76 109h-13.9v45.75h10.37v-16h4.44q7.36 0 11.22-3.88t3.86-11.35q0-7.43-3.92-10.98Zm-8.15 16.37a6.35 6.35 0 0 1-4.68 1.61h-2.77v-13.3H88a6 6 0 0 1 4.68 1.78 7.45 7.45 0 0 1 1.59 5.16 6.53 6.53 0 0 1-1.59 4.75ZM139.51 110.36l-.9 9.57a17.13 17.13 0 0 0-4.52-2.31 15.52 15.52 0 0 0-4.79-.75 11.64 11.64 0 0 0-9.28 4q-3.45 4-3.45 10.72t3.52 10.77a11.85 11.85 0 0 0 9.37 4 17.64 17.64 0 0 0 4.7-.66 22.79 22.79 0 0 0 4.83-2l.63 10.27a37.73 37.73 0 0 1-5.58 1.35 35.46 35.46 0 0 1-5.64.45q-10.59 0-16.51-6.39t-5.89-17.8q0-10.92 5.83-17.32t15.82-6.41a30.77 30.77 0 0 1 6.34.63 23.62 23.62 0 0 1 5.52 1.88ZM184 109.5l-.77 9.43a24.45 24.45 0 0 0-4.57-1.79 16 16 0 0 0-4.24-.59 8.8 8.8 0 0 0-4.91 1.17 3.68 3.68 0 0 0-1.81 3.28 3.82 3.82 0 0 0 .9 2.52 6.64 6.64 0 0 0 2.71 1.79l1.73.64q6.68 2.55 8.87 4.48a11.51 11.51 0 0 1 3 4.26 15.1 15.1 0 0 1 1 5.62q0 7.57-4.27 11.54t-12.38 4a36.4 36.4 0 0 1-5.87-.48 39.23 39.23 0 0 1-5.84-1.45l.87-10.21a28.74 28.74 0 0 0 5.33 2.21 17.52 17.52 0 0 0 4.88.75 7.85 7.85 0 0 0 4.85-1.35 4.35 4.35 0 0 0 1.78-3.67q0-2.86-5.69-5.18l-2.11-.87q-5.56-2.35-7.94-5.46a12.64 12.64 0 0 1-2.38-7.93q0-6.9 4.19-10.59t12-3.71a36.6 36.6 0 0 1 5.53.41 28.77 28.77 0 0 1 5.14 1.18ZM221.49 110.36l-.91 9.57a17.07 17.07 0 0 0-4.51-2.31 15.52 15.52 0 0 0-4.79-.75 11.64 11.64 0 0 0-9.28 4q-3.45 4-3.45 10.72t3.52 10.77a11.85 11.85 0 0 0 9.37 4 17.7 17.7 0 0 0 4.7-.66 23.23 23.23 0 0 0 4.83-2l.63 10.3a37.85 37.85 0 0 1-5.59 1.35 35.36 35.36 0 0 1-5.64.45q-10.59 0-16.5-6.39T188 131.58q0-10.92 5.83-17.32t15.82-6.41a30.67 30.67 0 0 1 6.33.63 23.7 23.7 0 0 1 5.51 1.88ZM225.24 109h10.37v17.45h12.1V109h10.37v45.75h-10.37V135.6h-12.1v19.13h-10.37ZM263.09 109h10.37v26.6c0 3.91.5 6.73 1.48 8.47a5.05 5.05 0 0 0 4.74 2.61 5.53 5.53 0 0 0 5-2.8c1.14-1.87 1.7-4.63 1.7-8.28V109h9.88v26.6q0 10.11-4.14 15.15t-12.47 5c-5.5 0-9.63-1.69-12.42-5.07s-4.17-8.42-4.17-15.12ZM301.27 109h10.38v36.7h15.63v9h-26ZM329.74 109h27v8.56h-16.63v9.24h15.71v8.7h-15.71v10.43h17.27v8.82h-27.64ZM361.57 109h12.95l11.28 27.43c.38.92.83 2.2 1.34 3.85s1.07 3.65 1.69 6c-.32-2.25-.57-4.32-.72-6.21s-.23-3.62-.23-5.18V109h9.36v45.75h-12.89l-11.72-28.45a42.32 42.32 0 0 1-1.51-4.27q-.67-2.3-1.26-5 .56 4.08.81 7.52c.18 2.28.26 4.29.26 6v24.15h-9.36Z" transform="translate(-3.46 -1.34)" style="fill:#f18700"/>
  <path d="M181.15 72.15a4.13 4.13 0 0 1 2.25 1.47 3.27 3.27 0 0 1 .51 1.68c0 1.18-.75 2.39-2.27 3.64a7.43 7.43 0 0 1-4.77 1.87c-.92 0-1.39-.28-1.39-.85 0-.92.65-1.39 1.94-1.39h.46a4.21 4.21 0 0 0 2.29-1 2.85 2.85 0 0 0 1.38-2.14 1.53 1.53 0 0 0-.57-1.17 2.12 2.12 0 0 0-1.51-.52 5.24 5.24 0 0 0-.73.29 3 3 0 0 1-1 .29 1.89 1.89 0 0 1-1.13-.22 1.06 1.06 0 0 1-.27-.86c0-.3.63-.71 1.9-1.22a7 7 0 0 0 2.15-1.46 2.79 2.79 0 0 0 1.07-1.75c0-.62-.44-.92-1.33-.92a10.61 10.61 0 0 0-2.46.28c-.8.18-1.25.41-1.34.68s-.31 1.69-.68 4.25-.56 4-.56 4.44l-.09 1.2a1.69 1.69 0 0 1-.44 1.22 1.32 1.32 0 0 1-.82.27c-.83 0-1.25-.53-1.25-1.6a5 5 0 0 1 .16-.9 44.37 44.37 0 0 0 .79-4.68c.26-2 .39-3.07.39-3.23s-.06-.46-.19-.46h-.25a.61.61 0 0 1-.49-.17 1.22 1.22 0 0 1-.28-.38 1 1 0 0 1-.06-.32c0-.62.86-1.2 2.58-1.75a17.65 17.65 0 0 1 5.42-.82 3.63 3.63 0 0 1 2.45.8 2.37 2.37 0 0 1 .99 1.88 2.52 2.52 0 0 1-.6 1.54 11.9 11.9 0 0 1-2.25 2.01ZM194.13 76.5c0 .65-.54 1.41-1.63 2.31a5.61 5.61 0 0 1-3.66 1.34 3.17 3.17 0 0 1-2.47-1 3.93 3.93 0 0 1-.9-2.75 7.6 7.6 0 0 1 1.84-4.87 5.1 5.1 0 0 1 3.92-2.27 2.21 2.21 0 0 1 1.67.66 2.18 2.18 0 0 1 .63 1.56 4.21 4.21 0 0 1-1.53 3.09 8.38 8.38 0 0 1-4 2 .32.32 0 0 0-.28.33 1.23 1.23 0 0 0 .4.85 1.39 1.39 0 0 0 1.05.4 5.22 5.22 0 0 0 3.7-1.92 1 1 0 0 1 .69-.37c.38.02.57.23.57.64Zm-6.23-1.64a5.65 5.65 0 0 0 2.59-1.25 2.57 2.57 0 0 0 1.11-1.74.75.75 0 0 0-.17-.51.54.54 0 0 0-.44-.21c-.54 0-1.13.4-1.79 1.19a6.09 6.09 0 0 0-1.3 2.52ZM199 64c.67 0 1 .36 1 1.09a4.71 4.71 0 0 1-.14 1.08c-.09.39-.35 1.35-.76 2.88a25.6 25.6 0 0 0-.69 3.62 27 27 0 0 0-.24 3.06 26.12 26.12 0 0 0 .18 2.81v.54a1.37 1.37 0 0 1-1.29 1.36 1 1 0 0 1-.93-.62 6 6 0 0 1-.27-2.14 45.67 45.67 0 0 1 .76-7.67 21.83 21.83 0 0 1 1.26-5.21c.33-.55.69-.8 1.12-.8ZM209.64 75a7.35 7.35 0 0 1-2.36 3.66 5.39 5.39 0 0 1-3.47 1.49 2.91 2.91 0 0 1-2.27-1 3.6 3.6 0 0 1-.89-2.47 8.11 8.11 0 0 1 1.64-4.68 4.73 4.73 0 0 1 4-2.32 3.2 3.2 0 0 1 2.57 1.17 4.25 4.25 0 0 1 1 2.8 5.79 5.79 0 0 1-.16 1.38Zm-4.82-2.93a6 6 0 0 0-1.27 1.84 5.59 5.59 0 0 0-.62 2.53 2.54 2.54 0 0 0 .28 1.27.85.85 0 0 0 .75.5 3.42 3.42 0 0 0 2.39-1.36 4.42 4.42 0 0 0 1.24-3.06 2.83 2.83 0 0 0-.4-1.58 1.28 1.28 0 0 0-1.13-.61 1.79 1.79 0 0 0-1.23.47ZM219.28 78.34a9.24 9.24 0 0 1-.65-3.12c-.14-1.58-.44-2.37-.91-2.37s-1.21.82-2.31 2.47a17.74 17.74 0 0 0-2 3.65 1.29 1.29 0 0 1-.31.59.66.66 0 0 1-.45.23q-1.41 0-1.41-1.29a14.79 14.79 0 0 1 .28-2 28.23 28.23 0 0 0 .36-4.9 1.58 1.58 0 0 1 .38-.93 1 1 0 0 1 .81-.49 1.2 1.2 0 0 1 .82.26 2.22 2.22 0 0 1 .29 1.43 21.17 21.17 0 0 1-.53 3.42c1.34-3.14 2.84-4.72 4.49-4.72q2.16 0 2.52 3.39c.25 2.3.54 3.45.86 3.45a1.65 1.65 0 0 0 .49-.09 1.6 1.6 0 0 1 .53-.11c.3 0 .44.17.44.52a1.42 1.42 0 0 1-.61 1 2.24 2.24 0 0 1-1.54.54 1.58 1.58 0 0 1-1.54-.94ZM230.31 76.86a9 9 0 0 1-2.4 1.9 5.11 5.11 0 0 1-2.36.75 2 2 0 0 1-1.53-.58 2.21 2.21 0 0 1-.54-1.58 6.17 6.17 0 0 1 1.09-3.2 10.17 10.17 0 0 1 3-3.07 6.41 6.41 0 0 1 3.48-1.3 2.36 2.36 0 0 1 1.47.46l.26.19a1.4 1.4 0 0 1 .42.58 1.91 1.91 0 0 1 .19.68 6 6 0 0 1-.36 1.12 9.64 9.64 0 0 0-.5 1.93q-.15.93-.57 4.65a8.09 8.09 0 0 1-1.81 4.73 4.29 4.29 0 0 1-3.15 1.49 6 6 0 0 1-3.55-1.23c-1.15-.82-1.72-1.49-1.72-2a.62.62 0 0 1 .68-.71 2.88 2.88 0 0 1 1.1.54 7 7 0 0 0 3.63 1.39 2.26 2.26 0 0 0 1.93-1.44 16.35 16.35 0 0 0 1.24-5.3Zm.22-5.16a3.36 3.36 0 0 0-1.8.82 9 9 0 0 0-2.06 2.21 4.45 4.45 0 0 0-.94 2.31c0 .32.11.48.35.48a3.69 3.69 0 0 0 2.37-1 8.09 8.09 0 0 0 1.91-2.23 4.31 4.31 0 0 0 .73-1.91.79.79 0 0 0-.17-.52.49.49 0 0 0-.39-.16ZM246.78 70.54a1.68 1.68 0 0 0 .47.26 1.46 1.46 0 0 1 .52.34 1.64 1.64 0 0 1 .26.72 6.69 6.69 0 0 1 .1 1.13c0 1.06-.36 1.65-1.07 1.78a.74.74 0 0 0-.46.35 1.11 1.11 0 0 1-.91.46 8.17 8.17 0 0 1-1.58-.2c-.64-.14-1-.36-1.1-.67 0-.06 0-.11-.08-.16a5.45 5.45 0 0 1-.57-2.32 2.12 2.12 0 0 1 .8-1.61 2.7 2.7 0 0 1 1.84-.7 2.06 2.06 0 0 1 .95.27 1.31 1.31 0 0 0 .27.12 1.75 1.75 0 0 1 .56.23ZM268.56 68.19l-2.86.15a22.86 22.86 0 0 0-2.57.26 4.11 4.11 0 0 0-1.16.28 1.28 1.28 0 0 0-.13.57 13.85 13.85 0 0 1-.33 1.64 8.18 8.18 0 0 0-.28 1.45 17.1 17.1 0 0 0 1.71-.12 14.92 14.92 0 0 0 1.57-.23 9.38 9.38 0 0 1 2.07-.33c1 0 1.47.3 1.47.88a1 1 0 0 1-.41.88 3.11 3.11 0 0 1-1.28.34c-.36 0-.76.09-1.21.17-.23 0-.52.07-.88.11a22.85 22.85 0 0 0-3 .46.43.43 0 0 0-.24.22 11.24 11.24 0 0 0-.28 1.37 11.38 11.38 0 0 0-.2 1.7.37.37 0 0 0 .42.34c.3 0 1.08-.08 2.35-.24s2-.28 2.35-.34a10.54 10.54 0 0 1 1.66-.27c.78.11 1.18.47 1.18 1.09a.8.8 0 0 1-.28.65 7.61 7.61 0 0 1-2.57.52c-.85.05-1.88.16-3.08.32a14.59 14.59 0 0 1-3 .34 1.27 1.27 0 0 1-1.58-1.32v-.3a3.32 3.32 0 0 1 .16-.57 37.28 37.28 0 0 0 .91-5.07q.54-3.94.54-4.38s0 0-.06-.08a1.39 1.39 0 0 1-.21-.35 1.3 1.3 0 0 1-.16-.62.7.7 0 0 1 0-.27c0-.13.16-.26.4-.39a1.46 1.46 0 0 1 .68-.2 6.62 6.62 0 0 1 .88.06c.51 0 2.18-.18 5-.56l1.47-.18h.13c1.11-.08 1.67.28 1.67 1.08a.94.94 0 0 1-.3.55 1.29 1.29 0 0 1-.55.39ZM278.4 78.34a9.24 9.24 0 0 1-.65-3.12c-.14-1.58-.44-2.37-.91-2.37s-1.21.82-2.31 2.47a17.74 17.74 0 0 0-2 3.65 1.29 1.29 0 0 1-.31.59.66.66 0 0 1-.45.23q-1.41 0-1.41-1.29a14.79 14.79 0 0 1 .28-2 28.23 28.23 0 0 0 .36-4.9 1.58 1.58 0 0 1 .38-.93 1 1 0 0 1 .81-.49 1.19 1.19 0 0 1 .82.26 2.22 2.22 0 0 1 .29 1.43 21.17 21.17 0 0 1-.53 3.42c1.34-3.14 2.84-4.72 4.49-4.72q2.16 0 2.52 3.39c.25 2.3.54 3.45.86 3.45a1.65 1.65 0 0 0 .49-.09 1.6 1.6 0 0 1 .53-.11c.3 0 .44.17.44.52a1.42 1.42 0 0 1-.61 1 2.24 2.24 0 0 1-1.54.54 1.58 1.58 0 0 1-1.54-.94ZM289.43 76.86a9 9 0 0 1-2.4 1.9 5.11 5.11 0 0 1-2.36.75 2 2 0 0 1-1.53-.58 2.21 2.21 0 0 1-.54-1.58 6.17 6.17 0 0 1 1.09-3.2 10.17 10.17 0 0 1 3-3.07 6.41 6.41 0 0 1 3.48-1.3 2.36 2.36 0 0 1 1.47.46l.26.19a1.4 1.4 0 0 1 .42.58 1.91 1.91 0 0 1 .19.68 6 6 0 0 1-.36 1.12 10.37 10.37 0 0 0-.5 1.93q-.15.93-.57 4.65a8.09 8.09 0 0 1-1.81 4.73 4.29 4.29 0 0 1-3.17 1.49 6 6 0 0 1-3.55-1.23c-1.15-.82-1.72-1.49-1.72-2a.62.62 0 0 1 .68-.71 2.88 2.88 0 0 1 1.1.54 7 7 0 0 0 3.63 1.39 2.26 2.26 0 0 0 1.93-1.44 16.35 16.35 0 0 0 1.26-5.3Zm.22-5.16a3.36 3.36 0 0 0-1.8.82 9 9 0 0 0-2.06 2.21 4.45 4.45 0 0 0-.94 2.31c0 .32.11.48.35.48a3.69 3.69 0 0 0 2.37-1 8.09 8.09 0 0 0 1.91-2.23 4.31 4.31 0 0 0 .73-1.91.79.79 0 0 0-.17-.52.49.49 0 0 0-.39-.16ZM300.21 76.59c-1.63 2.14-3.2 3.22-4.72 3.22a1.87 1.87 0 0 1-1.43-.66 2.36 2.36 0 0 1-.61-1.68 8.65 8.65 0 0 1 2.19-5.24q2.19-2.78 4.42-2.78a1.44 1.44 0 0 1 1.48 1.14c.71 0 1.07.28 1.07.82a9.2 9.2 0 0 1-.2 1.41 16.76 16.76 0 0 0-.38 3.05 5.76 5.76 0 0 0 .17 1.67c.11.32.18.53.23.63a.92.92 0 0 0 .45.32.54.54 0 0 1 .37.49.92.92 0 0 1-.48.79 1.78 1.78 0 0 1-1 .31c-1.16 0-1.68-1.16-1.56-3.49Zm-.56-5.15c-.62 0-1.44.69-2.43 2.07a6.46 6.46 0 0 0-1.5 3.52c0 .51.1.76.31.76.73 0 1.63-.65 2.7-1.94a5.78 5.78 0 0 0 1.6-3.4 1.18 1.18 0 0 0-.21-.74.6.6 0 0 0-.47-.27ZM311.23 76.86a9 9 0 0 1-2.4 1.9 5.11 5.11 0 0 1-2.36.75 2 2 0 0 1-1.53-.58 2.21 2.21 0 0 1-.54-1.58 6.17 6.17 0 0 1 1.09-3.2 10 10 0 0 1 3-3.07 6.42 6.42 0 0 1 3.49-1.3 2.36 2.36 0 0 1 1.47.46l.26.19a1.31 1.31 0 0 1 .41.58 1.72 1.72 0 0 1 .19.68 5.6 5.6 0 0 1-.35 1.12 9.64 9.64 0 0 0-.5 1.93c-.1.62-.29 2.17-.58 4.65a8.09 8.09 0 0 1-1.8 4.73 4.31 4.31 0 0 1-3.18 1.49 6 6 0 0 1-3.55-1.23c-1.14-.82-1.72-1.49-1.72-2a.62.62 0 0 1 .69-.71 3 3 0 0 1 1.1.54 6.93 6.93 0 0 0 3.62 1.39 2.25 2.25 0 0 0 1.96-1.46 16.56 16.56 0 0 0 1.23-5.28Zm.22-5.16a3.36 3.36 0 0 0-1.8.82 9 9 0 0 0-2.06 2.21 4.49 4.49 0 0 0-.95 2.31q0 .48.36.48a3.71 3.71 0 0 0 2.37-1 8.09 8.09 0 0 0 1.91-2.23 4.44 4.44 0 0 0 .73-1.91.79.79 0 0 0-.17-.52.49.49 0 0 0-.39-.16ZM324 76.5c0 .65-.54 1.41-1.62 2.31a5.61 5.61 0 0 1-3.67 1.34 3.16 3.16 0 0 1-2.46-1 3.93 3.93 0 0 1-.9-2.75 7.64 7.64 0 0 1 1.83-4.87 5.13 5.13 0 0 1 3.93-2.27 2.21 2.21 0 0 1 1.67.66 2.18 2.18 0 0 1 .63 1.56 4.25 4.25 0 0 1-1.55 3.08 8.43 8.43 0 0 1-4 2 .31.31 0 0 0-.28.33 1.21 1.21 0 0 0 .39.85 1.42 1.42 0 0 0 1.06.4 5.22 5.22 0 0 0 3.7-1.92 1 1 0 0 1 .69-.37c.35.03.58.24.58.65Zm-6.22-1.64a5.61 5.61 0 0 0 2.58-1.25 2.55 2.55 0 0 0 1.12-1.74.8.8 0 0 0-.17-.51.55.55 0 0 0-.44-.21 2.61 2.61 0 0 0-1.87 1.19 6.09 6.09 0 0 0-1.27 2.52ZM337.45 70.54a1.57 1.57 0 0 0 .46.26 1.51 1.51 0 0 1 .53.34 1.66 1.66 0 0 1 .25.72 5.8 5.8 0 0 1 .1 1.13c0 1.06-.35 1.65-1.06 1.78a.75.75 0 0 0-.47.35 1.1 1.1 0 0 1-.91.46 8.17 8.17 0 0 1-1.58-.2c-.63-.14-1-.36-1.1-.67 0-.06-.05-.11-.07-.16a5.45 5.45 0 0 1-.57-2.32 2.12 2.12 0 0 1 .8-1.61 2.68 2.68 0 0 1 1.84-.7 2 2 0 0 1 .94.27 1.39 1.39 0 0 0 .28.12 1.85 1.85 0 0 1 .56.23ZM360.06 75.11a19.29 19.29 0 0 0-.45 2 13.28 13.28 0 0 0-.21 1.89v1.47a1.44 1.44 0 0 1-.17.67 1.12 1.12 0 0 1-.41.4 1.1 1.1 0 0 1-.57.15 1.43 1.43 0 0 1-.92-.35 1.06 1.06 0 0 1-.42-.83 11.18 11.18 0 0 1 .26-1.35c.15-.72.28-1.33.37-1.83a9.78 9.78 0 0 1-5.57 2.3 3.36 3.36 0 0 1-3.63-3.63 9.18 9.18 0 0 1 1.6-5.09 13.56 13.56 0 0 1 4-4 8.58 8.58 0 0 1 4.63-1.47 3.57 3.57 0 0 1 1.89.44 1.31 1.31 0 0 1 .69 1.12 2.19 2.19 0 0 1-.47 1.25q-.48.69-1 .69a.67.67 0 0 1-.46-.13 1.21 1.21 0 0 1-.3-.49 1.41 1.41 0 0 0-.41-.59 1 1 0 0 0-.66-.17 5.56 5.56 0 0 0-3.17 1.44 11.69 11.69 0 0 0-2.95 3.29 7.1 7.1 0 0 0-1.12 3.62c0 1.21.52 1.82 1.56 1.82a5.71 5.71 0 0 0 1.93-.42 10.86 10.86 0 0 0 2.39-1.31 3.91 3.91 0 0 0 1.51-1.64 9.27 9.27 0 0 0 .38-1.61.87.87 0 0 1 .38-.69 1.69 1.69 0 0 1 .84-.18c.82 0 1.22.28 1.22.83a3 3 0 0 1-.32 1.06 9.86 9.86 0 0 0-.44 1.34ZM365.34 75.09l.15-.29a15.59 15.59 0 0 1 2.42-3.66 3.59 3.59 0 0 1 2.53-1.41 2.23 2.23 0 0 1 1.54.52 1.59 1.59 0 0 1 .6 1.23 1.45 1.45 0 0 1-.2.77.66.66 0 0 1-.57.32 1.49 1.49 0 0 1-1.05-.47.89.89 0 0 0-.52-.31c-.47 0-1.24.72-2.33 2.16a9.91 9.91 0 0 0-2 4.86 1.73 1.73 0 0 1-.45 1.09 1.4 1.4 0 0 1-1 .31.94.94 0 0 1-.91-.72 7.51 7.51 0 0 1-.27-2.38v-1.83c0-.77.1-1.61.21-2.65 0-.28 0-.49.07-.64a6.46 6.46 0 0 1 .19-1.25 1.3 1.3 0 0 1 .49-.64 1.38 1.38 0 0 1 .87-.29 1 1 0 0 1 .76.28 1 1 0 0 1 .26.63 8.08 8.08 0 0 1-.42 1.81 8.39 8.39 0 0 0-.25 1.13ZM381.33 75a7.42 7.42 0 0 1-2.33 3.65 5.39 5.39 0 0 1-3.48 1.49 2.89 2.89 0 0 1-2.26-1 3.6 3.6 0 0 1-.89-2.47A8.09 8.09 0 0 1 374 72a4.75 4.75 0 0 1 4-2.32 3.19 3.19 0 0 1 2.57 1.17 4.21 4.21 0 0 1 1 2.8 6.35 6.35 0 0 1-.16 1.38Zm-4.83-2.93a6.14 6.14 0 0 0-1.27 1.84 5.72 5.72 0 0 0-.62 2.53 2.54 2.54 0 0 0 .29 1.27.83.83 0 0 0 .74.5 3.38 3.38 0 0 0 2.36-1.37 4.43 4.43 0 0 0 1.25-3.06 2.83 2.83 0 0 0-.41-1.58 1.25 1.25 0 0 0-1.12-.61 1.83 1.83 0 0 0-1.24.47ZM390.67 73.86c-.06.1-.53 1.08-1.41 2.93-.07.16-.12.25-.13.27q-1.58 3.18-2.43 3.18c-.89 0-1.67-1.1-2.34-3.31a19.86 19.86 0 0 1-1-5.53 2.08 2.08 0 0 1 .37-1.29 1.28 1.28 0 0 1 1.08-.49 1 1 0 0 1 .77.38 1.08 1.08 0 0 1 .34.71l-.08 1.23v1.11a10.86 10.86 0 0 0 .41 2.61c.27 1.09.46 1.63.57 1.63a6.92 6.92 0 0 0 .94-1.65c.71-1.44 1.29-2.53 1.72-3.27a7.29 7.29 0 0 1 1.64-2.31 1.88 1.88 0 0 1 1 .37.87.87 0 0 1 .36.69v.47a1 1 0 0 0 0 .28 8.59 8.59 0 0 0 1.55 5q.11.11.18-.12c.05-.15.18-.61.38-1.37a25.46 25.46 0 0 1 1.28-3.72 6.41 6.41 0 0 1 1.17-2 1.6 1.6 0 0 1 1-.38.86.86 0 0 1 .63.27.9.9 0 0 1 .26.6 1 1 0 0 1-.16.61 15.56 15.56 0 0 0-2.13 4.42 26.56 26.56 0 0 1-1.33 3.57c-.24.44-.45.65-.63.65a2.83 2.83 0 0 1-1.41-.32A3.26 3.26 0 0 1 392.1 78a10.77 10.77 0 0 1-.93-2.2 12.68 12.68 0 0 1-.5-1.94ZM354.76 173.31h-1.14v-10h1.23v3.58a2.45 2.45 0 0 1 2-1 3 3 0 0 1 1.27.27 2.57 2.57 0 0 1 1 .76 3.76 3.76 0 0 1 .61 1.18 4.73 4.73 0 0 1 .22 1.48 4.17 4.17 0 0 1-.92 2.88 2.9 2.9 0 0 1-2.22 1 2.33 2.33 0 0 1-2-1.07Zm0-3.69a3.75 3.75 0 0 0 .36 1.89 1.77 1.77 0 0 0 1.57 1 1.75 1.75 0 0 0 1.39-.7 3.21 3.21 0 0 0 .59-2.09 3.27 3.27 0 0 0-.56-2.1 1.73 1.73 0 0 0-1.37-.68 1.78 1.78 0 0 0-1.39.7 3.11 3.11 0 0 0-.6 1.98ZM361.36 176.1l-.14-1.15a2.93 2.93 0 0 0 .71.11 1.33 1.33 0 0 0 .65-.14 1.15 1.15 0 0 0 .41-.38 6 6 0 0 0 .37-.92c0-.07.06-.17.11-.3l-2.75-7.27H362l1.52 4.2c.19.53.37 1.09.52 1.68a15.74 15.74 0 0 1 .51-1.65l1.55-4.23h1.23l-2.76 7.38a16 16 0 0 1-.69 1.65 2.51 2.51 0 0 1-.75.89 1.79 1.79 0 0 1-1 .28 2.48 2.48 0 0 1-.77-.15ZM372.53 173.31v-10h6.76v1.19h-5.43v3.1h4.7v1.18h-4.7v4.56ZM383.44 171.69v-2.75h-2.73v-1.15h2.73v-2.73h1.16v2.73h2.73v1.15h-2.73v2.75ZM395.77 163.28h1.32v5.79a6.79 6.79 0 0 1-.34 2.4 2.92 2.92 0 0 1-1.23 1.45 4.4 4.4 0 0 1-2.34.56 4.77 4.77 0 0 1-2.31-.49 2.77 2.77 0 0 1-1.28-1.4 6.85 6.85 0 0 1-.38-2.52v-5.79h1.33v5.79a5.66 5.66 0 0 0 .24 1.92 1.89 1.89 0 0 0 .83 1 3 3 0 0 0 1.45.33 2.76 2.76 0 0 0 2.08-.66 3.78 3.78 0 0 0 .63-2.55Z" transform="translate(-3.46 -1.34)" style="fill:#0069b4"/>
</svg>