<?xml version="1.0" encoding="utf-8"?>
<!-- Generator: Adobe Illustrator 24.0.1, SVG Export Plug-In . SVG Version: 6.00 Build 0)  -->
<!DOCTYPE svg PUBLIC "-//W3C//DTD SVG 1.1//EN" "http://www.w3.org/Graphics/SVG/1.1/DTD/svg11.dtd" [
	<!ENTITY ns_extend "http://ns.adobe.com/Extensibility/1.0/">
	<!ENTITY ns_ai "http://ns.adobe.com/AdobeIllustrator/10.0/">
	<!ENTITY ns_graphs "http://ns.adobe.com/Graphs/1.0/">
	<!ENTITY ns_vars "http://ns.adobe.com/Variables/1.0/">
	<!ENTITY ns_imrep "http://ns.adobe.com/ImageReplacement/1.0/">
	<!ENTITY ns_sfw "http://ns.adobe.com/SaveForWeb/1.0/">
	<!ENTITY ns_custom "http://ns.adobe.com/GenericCustomNamespace/1.0/">
	<!ENTITY ns_adobe_xpath "http://ns.adobe.com/XPath/1.0/">
]>
<svg version="1.1" id="Ebene_1" xmlns:x="&ns_extend;" xmlns:i="&ns_ai;" xmlns:graph="&ns_graphs;"
	 xmlns="http://www.w3.org/2000/svg" xmlns:xlink="http://www.w3.org/1999/xlink" x="0px" y="0px" viewBox="0 0 505.0765 218.7587"
	 style="enable-background:new 0 0 505.0765 218.7587;" xml:space="preserve">
<style type="text/css">
	.st0{fill:#FFFFFF;}
	.st1{fill:#0F225A;}
	.st2{fill:#E84C0A;}
	.st3{fill-rule:evenodd;clip-rule:evenodd;fill:#0F225A;}
</style>
<metadata>
	<sfw  xmlns="&ns_sfw;">
		<slices></slices>
		<sliceSourceBounds  bottomLeftOrigin="true" height="212.5984" width="16383" x="-7893.3047" y="-488.7837"></sliceSourceBounds>
	</sfw>
</metadata>
<g>
	
		<ellipse transform="matrix(0.2298 -0.9732 0.9732 0.2298 -22.7132 189.9552)" class="st0" cx="108.6528" cy="109.3273" rx="105.0492" ry="105.0489"/>
	<path class="st1" d="M108.6529,5.5283c57.2351,0,103.7992,46.5641,103.7992,103.7992s-46.5641,103.7992-103.7992,103.7992
		S4.8536,166.5626,4.8536,109.3275S51.4178,5.5283,108.6529,5.5283 M108.6529,3.0283C49.9454,3.0283,2.3536,50.62,2.3536,109.3275
		s47.5918,106.2992,106.2992,106.2992s106.2992-47.5918,106.2992-106.2992S167.3603,3.0283,108.6529,3.0283L108.6529,3.0283z"/>
</g>
<g>
	<g>
		<polygon class="st1" points="40.2237,83.4215 55.0273,83.4215 55.0273,142.7461 40.2237,142.7461 40.2237,83.4215 		"/>
		<g>
			<path class="st2" d="M37.1946,68.2144c0-5.4868,4.4492-9.9349,9.9365-9.9349c5.4852,0,9.9345,4.4481,9.9345,9.9349
				c0,5.4878-4.4492,9.9359-9.9345,9.9359C41.6438,78.1503,37.1946,73.7021,37.1946,68.2144L37.1946,68.2144z"/>
			<path class="st3" d="M121.7443,121.738c-1.2486,5.1613-3.7273,9.6932-7.4115,13.5996
				c-5.5735,5.9057-12.178,8.8594-19.8154,8.8594c-3.4008,0-6.5664-0.6053-9.498-1.8133c-2.9316-1.206-5.8446-3.1785-8.7413-5.9196
				v6.2845H61.4767V60.8408h14.8014V90.182c2.681-2.6594,5.5736-4.6525,8.6859-5.9812c3.1133-1.3287,6.4422-1.993,9.9888-1.993
				c7.7093,0,14.2572,2.907,19.6511,8.7228c3.5528,3.8331,5.935,8.3788,7.1487,13.6392c1.2157-5.2306,3.5712-9.8235,7.1116-13.6392
				c5.399-5.8158,11.9583-8.7228,19.6738-8.7228c3.5517,0,6.8837,0.6613,10.0011,1.9859c3.1154,1.323,5.9966,3.3093,8.6416,5.9581
				v-6.4972h14.8016v59.094h-14.8016v-6.2845c-2.8997,2.741-5.8076,4.7136-8.7237,5.9196c-2.9173,1.208-6.0777,1.8133-9.4837,1.8133
				c-7.6446,0-14.2583-2.9536-19.838-8.8594C125.4882,131.4757,123.0084,126.83,121.7443,121.738L121.7443,121.738z
				 M91.8313,95.7838c-4.6637,0-8.5349,1.5926-11.607,4.7773c-3.0753,3.182-4.6125,7.3417-4.6125,12.4763
				c0,5.2475,1.5372,9.4882,4.6125,12.7263c3.0721,3.237,6.9433,4.8553,11.607,4.8553c4.5221,0,8.3274-1.6465,11.4192-4.9374
				c3.0917-3.292,4.6381-7.488,4.6381-12.5877c0-5.0653-1.5186-9.2151-4.5549-12.4531
				C100.2953,97.4036,96.4612,95.7838,91.8313,95.7838L91.8313,95.7838z M151.5723,95.7838c-4.593,0-8.4075,1.6199-11.4458,4.8569
				c-3.0373,3.2381-4.556,7.3878-4.556,12.4531c0,5.0997,1.5453,9.2957,4.6381,12.5877c3.0917,3.291,6.8981,4.9374,11.4182,4.9374
				c4.6668,0,8.5349-1.6183,11.6091-4.8553c3.0742-3.2381,4.6114-7.4788,4.6114-12.7263c0-5.1346-1.5371-9.2942-4.6114-12.4763
				C160.1616,97.3764,156.2751,95.7838,151.5723,95.7838L151.5723,95.7838z"/>
		</g>
	</g>
</g>
<g>
	<g>
		<path class="st1" d="M267.5439,102.6757c0,7.5221-4.3031,11.4909-11.742,11.4909c-7.6883,0-12.2416-3.5514-12.2416-11.4909
			V83.6222h3.9697v19.0536c0,5.2653,3.0085,8.1481,8.2719,8.1481c5.0141,0,7.7732-2.8829,7.7732-8.1481V83.6222h3.9688V102.6757z"/>
		<path class="st1" d="M276.1592,83.6222h4.2199l15.7108,24.1932h0.0831V83.6222h3.762v29.8343h-4.3456l-15.5852-23.9421h-0.085
			v23.9421h-3.7601V83.6222z"/>
		<path class="st1" d="M308.8404,83.6222h3.9706v29.8343h-3.9706V83.6222z"/>
		<path class="st1" d="M333.5378,113.4565h-4.5118l-10.5305-29.8343h4.3049l8.523,25.8646h0.0831l8.608-25.8646h4.1369
			L333.5378,113.4565z"/>
		<path class="st1" d="M349.6328,83.6222h20.5993v3.3427h-16.6305v9.4852h15.5021v3.3427h-15.5021v10.3209h16.7561v3.3427h-20.7249
			V83.6222z"/>
		<path class="st1" d="M377.466,83.6222h14.0395c5.5995,0,9.066,3.0509,9.066,7.8139c0,3.5939-1.5864,6.5599-5.1803,7.5627v0.084
			c3.4683,0.6685,4.1775,3.2171,4.4711,6.1425c0.2493,2.9244,0.0831,6.184,1.7545,8.2312h-4.4286
			c-1.1284-1.2115-0.5023-4.4296-1.0878-7.354c-0.4174-2.9244-1.1266-5.3899-4.9716-5.3899h-9.6939v12.7439h-3.9688V83.6222z
			 M389.7086,97.3698c3.7176,0,6.8941-0.9613,6.8941-5.3068c0-2.9244-1.5883-5.0981-5.3059-5.0981h-9.862v10.4049H389.7086z"/>
		<path class="st1" d="M425.6512,92.3557c-0.4599-4.2624-3.3003-6.1009-7.3965-6.1009c-3.3427,0-6.6855,1.2124-6.6855,5.0981
			c0,3.677,4.7648,4.22,9.5683,5.3059c4.7648,1.0868,9.5277,2.7582,9.5277,8.608c0,6.3512-6.2256,8.8998-11.6571,8.8998
			c-6.6855,0-12.3275-3.2587-12.3275-10.5296h3.7601c0,5.0141,4.1793,7.1869,8.6911,7.1869c3.5939,0,7.5627-1.1284,7.5627-5.4315
			c0-4.0953-4.7629-4.8054-9.5258-5.8498c-4.7629-1.0444-9.5683-2.4239-9.5683-7.8979c0-6.0585,5.3908-8.7327,10.8223-8.7327
			c6.1,0,10.7374,2.8838,10.9885,9.4437H425.6512z"/>
		<path class="st1" d="M437.9417,83.6222h3.9706v29.8343h-3.9706V83.6222z"/>
		<path class="st1" d="M457.6656,86.9649h-9.9451v-3.3427h23.8589v3.3427h-9.9451v26.4916h-3.9688V86.9649z"/>
		<path class="st1" d="M489.5121,101.2555v12.201h-3.9688v-12.201l-11.5334-17.6334h4.7223l8.9423,14.2075l8.7317-14.2075h4.5136
			L489.5121,101.2555z"/>
	</g>
	<g>
		<path class="st1" d="M248.579,131.0307c3.6585,0,5.5995,2.6548,5.5995,6.0455c0,3.3677-1.941,6.0225-5.5995,6.0225
			c-3.6558,0-5.5968-2.6548-5.5968-6.0225C242.9822,133.6855,244.9232,131.0307,248.579,131.0307z M248.579,141.4255
			c1.9853,0,3.592-1.5615,3.592-4.3492c0-2.8108-1.6067-4.3723-3.592-4.3723s-3.5893,1.5615-3.5893,4.3723
			C244.9897,139.864,246.5936,141.4255,248.579,141.4255z"/>
		<path class="st1" d="M257.3975,132.9717h-1.941v-1.6732h1.941v-1.7175c0-1.8736,1.1154-2.8552,3.1894-2.8552
			c0.3564,0,0.8698,0.0674,1.2263,0.1782v1.6511c-0.3343-0.1117-0.735-0.1561-1.0711-0.1561c-0.9142,0-1.4498,0.2899-1.4498,1.2937
			v1.6058h2.231v1.6732h-2.231v9.8592h-1.8948V132.9717z"/>
		<path class="st1" d="M281.3358,131.7002c-0.4451-2.2531-2.2531-3.3907-4.4601-3.3907c-3.7933,0-5.3982,3.123-5.3982,6.4463
			c0,3.6364,1.6049,6.6698,5.4204,6.6698c2.7887,0,4.3936-1.9632,4.5949-4.5949h2.1183c-0.4008,3.9706-2.8773,6.3798-6.8923,6.3798
			c-4.9513,0-7.3614-3.6585-7.3614-8.2977c0-4.618,2.6335-8.3873,7.5405-8.3873c3.3224,0,6.0668,1.784,6.558,5.1748H281.3358z"/>
		<path class="st1" d="M291.1129,131.0307c3.6585,0,5.5995,2.6548,5.5995,6.0455c0,3.3677-1.941,6.0225-5.5995,6.0225
			c-3.6567,0-5.5977-2.6548-5.5977-6.0225C285.5152,133.6855,287.4562,131.0307,291.1129,131.0307z M291.1129,141.4255
			c1.9853,0,3.592-1.5615,3.592-4.3492c0-2.8108-1.6067-4.3723-3.592-4.3723s-3.5902,1.5615-3.5902,4.3723
			C287.5226,139.864,289.1275,141.4255,291.1129,141.4255z"/>
		<path class="st1" d="M304.1236,131.0307c3.6585,0,5.5995,2.6548,5.5995,6.0455c0,3.3677-1.941,6.0225-5.5995,6.0225
			c-3.6567,0-5.5977-2.6548-5.5977-6.0225C298.526,133.6855,300.4669,131.0307,304.1236,131.0307z M304.1236,141.4255
			c1.9853,0,3.5921-1.5615,3.5921-4.3492c0-2.8108-1.6068-4.3723-3.5921-4.3723s-3.5902,1.5615-3.5902,4.3723
			C300.5334,139.864,302.1383,141.4255,304.1236,141.4255z"/>
		<path class="st1" d="M312.2256,131.2985h1.8967v1.5615h0.0443c0.6242-1.2715,2.0961-1.8293,3.6807-1.8293
			c3.5459,0,5.3096,2.8109,5.3096,6.0677s-1.7415,6.0003-5.2653,6.0003c-1.1819,0-2.8773-0.446-3.725-1.8071h-0.0443v5.956h-1.8967
			V131.2985z M317.5795,132.7039c-2.5431,0-3.5237,2.1857-3.5237,4.3502c0,2.2743,1.025,4.3714,3.6345,4.3714
			c2.5874,0,3.4572-2.2079,3.4572-4.461C321.1476,134.801,320.0339,132.7039,317.5795,132.7039z"/>
		<path class="st1" d="M335.4289,139.1724c-0.5116,2.5431-2.3417,3.9263-4.9291,3.9263c-3.6807,0-5.4204-2.5431-5.5312-6.0677
			c0-3.4572,2.2753-6.0003,5.4204-6.0003c4.0815,0,5.3299,3.8146,5.2191,6.6033h-8.632c-0.0665,2.0075,1.0712,3.7915,3.5902,3.7915
			c1.5624,0,2.6557-0.7581,2.99-2.2531H335.4289z M333.6006,135.9608c-0.0887-1.8071-1.4497-3.2569-3.3242-3.2569
			c-1.9853,0-3.1673,1.495-3.3003,3.2569H333.6006z"/>
		<path class="st1" d="M337.7116,131.2985h1.784v2.4313h0.0443c0.9142-1.8514,2.1866-2.7656,4.2384-2.6991v2.0075
			c-3.0565,0-4.1719,1.7406-4.1719,4.6623v5.1304h-1.8948V131.2985z"/>
		<path class="st1" d="M355.6275,142.7866c-0.3343,0.2004-0.759,0.3121-1.3611,0.3121c-0.9807,0-1.6067-0.5356-1.6067-1.7849
			c-1.0471,1.2272-2.4525,1.7849-4.0593,1.7849c-2.0961,0-3.8137-0.9373-3.8137-3.2347c0-2.6095,1.941-3.1673,3.9023-3.5468
			c2.098-0.4008,3.882-0.2669,3.882-1.6945c0-1.651-1.3611-1.9188-2.5652-1.9188c-1.6067,0-2.7887,0.4912-2.8773,2.1857h-1.8967
			c0.1126-2.8552,2.3196-3.8589,4.8848-3.8589c2.0758,0,4.3289,0.4691,4.3289,3.1682v5.9329c0,0.892,0,1.2937,0.6021,1.2937
			c0.1551,0,0.3343-0.0222,0.5799-0.1117V142.7866z M352.5489,136.875c-0.7369,0.5356-2.1645,0.5577-3.4351,0.7812
			c-1.2484,0.2225-2.3196,0.6685-2.3196,2.074c0,1.2494,1.0711,1.6954,2.2309,1.6954c2.4969,0,3.5237-1.5615,3.5237-2.6095V136.875z
			"/>
		<path class="st1" d="M360.2261,131.2985h2.2974v1.6732h-2.2974v7.1601c0,0.8698,0.2456,1.0259,1.4276,1.0259h0.8698v1.6732
			h-1.4497c-1.9632,0-2.7425-0.4017-2.7425-2.5209v-7.3383h-1.9632v-1.6732h1.9632v-3.4572h1.8948V131.2985z"/>
		<path class="st1" d="M366.8321,129.2245h-1.8967v-2.3205h1.8967V129.2245z M364.9354,131.2985h1.8967v11.5324h-1.8967V131.2985z"
			/>
		<path class="st1" d="M375.176,142.8309h-2.0296l-4.2828-11.5324h2.1201l3.2338,9.6145h0.0443l3.1451-9.6145h1.9853
			L375.176,142.8309z"/>
		<path class="st1" d="M391.1749,139.1724c-0.5116,2.5431-2.3418,3.9263-4.9291,3.9263c-3.6807,0-5.4204-2.5431-5.5312-6.0677
			c0-3.4572,2.2753-6.0003,5.4204-6.0003c4.0815,0,5.3299,3.8146,5.2191,6.6033h-8.632c-0.0665,2.0075,1.0711,3.7915,3.5902,3.7915
			c1.5624,0,2.6557-0.7581,2.99-2.2531H391.1749z M389.3466,135.9608c-0.0887-1.8071-1.4498-3.2569-3.3243-3.2569
			c-1.9853,0-3.1673,1.495-3.3002,3.2569H389.3466z"/>
		<path class="st1" d="M400.2391,126.904h10.9977v1.785h-8.8776v5.063h8.2756v1.7849h-8.2756v5.509h8.9441v1.7849h-11.0642V126.904z
			"/>
		<path class="st1" d="M424.0685,142.8309h-1.8967v-1.5615h-0.0443c-0.6242,1.2715-2.0961,1.8293-3.6807,1.8293
			c-3.5459,0-5.3077-2.8109-5.3077-6.0677c0-3.2559,1.7397-6.0003,5.2634-6.0003c1.1819,0,2.8773,0.446,3.725,1.8071h0.0443v-5.9338
			h1.8967V142.8309z M418.7146,141.4255c2.5431,0,3.5255-2.1857,3.5255-4.3492c0-2.2753-1.0268-4.3723-3.6364-4.3723
			c-2.5874,0-3.4572,2.2088-3.4572,4.461C415.1465,139.3284,416.262,141.4255,418.7146,141.4255z"/>
		<path class="st1" d="M436.7431,142.8309h-1.784v-1.8293h-0.0443c-0.8034,1.4276-2.0961,2.0971-3.7472,2.0971
			c-3.0343,0-3.9706-1.7397-3.9706-4.2163v-7.5839h1.8967v7.8074c0,1.4054,0.892,2.3196,2.3418,2.3196
			c2.2974,0,3.4129-1.5393,3.4129-3.6133v-6.5137h1.8948V142.8309z"/>
		<path class="st1" d="M447.6319,135.0014c-0.2899-1.4497-1.2928-2.2974-2.8552-2.2974c-2.7425,0-3.5902,2.1635-3.5902,4.5062
			c0,2.1183,0.9585,4.2153,3.3686,4.2153c1.8283,0,2.9217-1.0702,3.1673-2.8109h1.941c-0.4248,2.8109-2.1866,4.4841-5.0861,4.4841
			c-3.5256,0-5.3982-2.4535-5.3982-5.8886c0-3.4581,1.784-6.1794,5.4425-6.1794c2.6096,0,4.7057,1.2272,4.9735,3.9706H447.6319z"/>
		<path class="st1" d="M462.2051,142.7866c-0.3343,0.2004-0.759,0.3121-1.3611,0.3121c-0.9807,0-1.6068-0.5356-1.6068-1.7849
			c-1.0471,1.2272-2.4525,1.7849-4.0593,1.7849c-2.0961,0-3.8137-0.9373-3.8137-3.2347c0-2.6095,1.941-3.1673,3.9023-3.5468
			c2.098-0.4008,3.882-0.2669,3.882-1.6945c0-1.651-1.3611-1.9188-2.5652-1.9188c-1.6067,0-2.7887,0.4912-2.8773,2.1857h-1.8967
			c0.1126-2.8552,2.3214-3.8589,4.8848-3.8589c2.0758,0,4.3289,0.4691,4.3289,3.1682v5.9329c0,0.892,0,1.2937,0.6021,1.2937
			c0.1551,0,0.3343-0.0222,0.5799-0.1117V142.7866z M459.1265,136.875c-0.7369,0.5356-2.1645,0.5577-3.4351,0.7812
			c-1.2484,0.2225-2.3196,0.6685-2.3196,2.074c0,1.2494,1.0711,1.6954,2.2309,1.6954c2.4969,0,3.5237-1.5615,3.5237-2.6095V136.875z
			"/>
		<path class="st1" d="M466.8055,131.2985h2.2974v1.6732h-2.2974v7.1601c0,0.8698,0.2456,1.0259,1.4276,1.0259h0.8698v1.6732
			h-1.4497c-1.9632,0-2.7425-0.4017-2.7425-2.5209v-7.3383h-1.9631v-1.6732h1.9631v-3.4572h1.8948V131.2985z"/>
		<path class="st1" d="M473.4116,129.2245h-1.8967v-2.3205h1.8967V129.2245z M471.5149,131.2985h1.8967v11.5324h-1.8967V131.2985z"
			/>
		<path class="st1" d="M481.5302,131.0307c3.6585,0,5.5995,2.6548,5.5995,6.0455c0,3.3677-1.941,6.0225-5.5995,6.0225
			c-3.6567,0-5.5977-2.6548-5.5977-6.0225C475.9325,133.6855,477.8734,131.0307,481.5302,131.0307z M481.5302,141.4255
			c1.9853,0,3.592-1.5615,3.592-4.3492c0-2.8108-1.6067-4.3723-3.592-4.3723s-3.5902,1.5615-3.5902,4.3723
			C477.9399,139.864,479.5448,141.4255,481.5302,141.4255z"/>
		<path class="st1" d="M489.5675,131.2985h1.784v1.8293h0.0443c0.8033-1.4276,2.098-2.0971,3.749-2.0971
			c3.0325,0,3.9688,1.7406,3.9688,4.2163v7.5839h-1.8948v-7.8074c0-1.4054-0.892-2.3196-2.3418-2.3196
			c-2.2974,0-3.4129,1.5393-3.4129,3.6133v6.5137h-1.8967V131.2985z"/>
	</g>
</g>
</svg>
