<?xml version="1.0" encoding="UTF-8"?><svg id="Ebene_1" xmlns="http://www.w3.org/2000/svg" viewBox="0 0 409.21 78.19"><rect id="Splitter" x="201.09" y="22.04" width="2.42" height="55.27" fill="#e94d0a"/><g id="Arbeit"><path d="m225.86,27.17h2.29l6.09,15.59h-2.29l-1.7-4.69h-6.59l-1.75,4.69h-2.14l6.09-15.59Zm-1.55,9.15h5.28l-2.6-7.27h-.04l-2.64,7.27Z" fill="#0f225a"/><path d="m235.5,31.47h1.75v2.38h.04c.89-1.81,2.14-2.71,4.15-2.64v1.97c-2.99,0-4.08,1.7-4.08,4.56v5.02h-1.86v-11.29Z" fill="#0f225a"/><path d="m243.01,27.17h1.86v5.83h.04c.61-1.24,2.05-1.79,3.6-1.79,3.47,0,5.2,2.75,5.2,5.94s-1.7,5.87-5.15,5.87c-1.16,0-2.82-.44-3.65-1.77h-.04v1.51h-1.86v-15.59Zm5.24,5.68c-2.49,0-3.45,2.14-3.45,4.26,0,2.23,1,4.28,3.56,4.28s3.38-2.16,3.38-4.37-1.09-4.17-3.49-4.17" fill="#0f225a"/><path d="m265.62,39.18c-.5,2.49-2.29,3.84-4.82,3.84-3.6,0-5.31-2.49-5.41-5.94,0-3.39,2.23-5.87,5.3-5.87,4,0,5.22,3.73,5.11,6.46h-8.45c-.07,1.97,1.05,3.71,3.51,3.71,1.53,0,2.6-.74,2.93-2.2h1.83Zm-1.79-3.14c-.09-1.77-1.42-3.19-3.25-3.19-1.94,0-3.1,1.46-3.23,3.19h6.48Z" fill="#0f225a"/><path d="m269.79,29.44h-1.86v-2.27h1.86v2.27Zm-1.86,2.03h1.86v11.29h-1.86v-11.29Z" fill="#0f225a"/><path d="m275.36,31.47h2.25v1.64h-2.25v7.01c0,.85.24,1,1.4,1h.85v1.64h-1.42c-1.92,0-2.68-.39-2.68-2.47v-7.18h-1.92v-1.64h1.92v-3.38h1.86v3.38Z" fill="#0f225a"/></g><g id="und"><path d="m295.28,42.76h-1.75v-1.79h-.04c-.79,1.4-2.05,2.05-3.67,2.05-2.97,0-3.89-1.7-3.89-4.13v-7.42h1.86v7.64c0,1.38.87,2.27,2.29,2.27,2.25,0,3.34-1.51,3.34-3.54v-6.38h1.86v11.29Z" fill="#0f225a"/><path d="m298.18,31.47h1.75v1.79h.04c.79-1.4,2.05-2.05,3.67-2.05,2.97,0,3.89,1.7,3.89,4.13v7.42h-1.86v-7.64c0-1.38-.87-2.27-2.29-2.27-2.25,0-3.34,1.51-3.34,3.54v6.38h-1.86v-11.29Z" fill="#0f225a"/><path d="m320.51,42.76h-1.86v-1.53h-.04c-.61,1.24-2.05,1.79-3.6,1.79-3.47,0-5.2-2.75-5.2-5.94s1.7-5.87,5.15-5.87c1.16,0,2.82.44,3.65,1.77h.04v-5.81h1.86v15.59Zm-5.24-1.38c2.49,0,3.45-2.14,3.45-4.26,0-2.23-1-4.28-3.56-4.28s-3.38,2.16-3.38,4.37,1.09,4.17,3.49,4.17" fill="#0f225a"/></g><g id="Studium"><path d="m338.98,31.73c-.24-2.23-1.73-3.19-3.86-3.19-1.75,0-3.49.63-3.49,2.66,0,1.92,2.49,2.21,5,2.77,2.49.57,4.98,1.44,4.98,4.5,0,3.32-3.25,4.65-6.09,4.65-3.49,0-6.44-1.7-6.44-5.5h1.96c0,2.62,2.18,3.75,4.54,3.75,1.88,0,3.95-.59,3.95-2.84s-2.49-2.51-4.98-3.06c-2.49-.55-5-1.27-5-4.13,0-3.17,2.82-4.56,5.65-4.56,3.19,0,5.61,1.51,5.74,4.93h-1.96Z" fill="#0f225a"/><path d="m346.48,31.47h2.25v1.64h-2.25v7.01c0,.85.24,1,1.4,1h.85v1.64h-1.42c-1.92,0-2.68-.39-2.68-2.47v-7.18h-1.92v-1.64h1.92v-3.38h1.86v3.38Z" fill="#0f225a"/><path d="m360.23,42.76h-1.75v-1.79h-.04c-.79,1.4-2.05,2.05-3.67,2.05-2.97,0-3.89-1.7-3.89-4.13v-7.42h1.86v7.64c0,1.38.87,2.27,2.29,2.27,2.25,0,3.34-1.51,3.34-3.54v-6.38h1.86v11.29Z" fill="#0f225a"/><path d="m373.22,42.76h-1.86v-1.53h-.04c-.61,1.24-2.05,1.79-3.6,1.79-3.47,0-5.2-2.75-5.2-5.94s1.7-5.87,5.15-5.87c1.16,0,2.82.44,3.65,1.77h.04v-5.81h1.86v15.59Zm-5.24-1.38c2.49,0,3.45-2.14,3.45-4.26,0-2.23-1-4.28-3.56-4.28s-3.38,2.16-3.38,4.37,1.09,4.17,3.49,4.17" fill="#0f225a"/><path d="m378.15,29.44h-1.86v-2.27h1.86v2.27Zm-1.86,2.03h1.86v11.29h-1.86v-11.29Z" fill="#0f225a"/><path d="m390.48,42.76h-1.75v-1.79h-.04c-.79,1.4-2.05,2.05-3.67,2.05-2.97,0-3.89-1.7-3.89-4.13v-7.42h1.86v7.64c0,1.38.87,2.27,2.29,2.27,2.25,0,3.34-1.51,3.34-3.54v-6.38h1.86v11.29Z" fill="#0f225a"/><path d="m393.38,31.47h1.75v1.66h.04c.83-1.27,2.1-1.92,3.64-1.92,1.38,0,2.64.55,3.1,1.92.76-1.2,2.1-1.92,3.54-1.92,2.25,0,3.76.94,3.76,3.28v8.27h-1.86v-7.4c0-1.4-.37-2.51-2.18-2.51s-2.95,1.14-2.95,2.88v7.03h-1.85v-7.4c0-1.46-.46-2.51-2.12-2.51-2.2,0-3.01,2.03-3.01,2.88v7.03h-1.86v-11.29Z" fill="#0f225a"/></g><g id="lug"><polygon points="221.43 52.39 223.28 52.39 223.28 61.62 228.43 56.69 230.92 56.69 226.45 60.79 231.25 67.98 228.89 67.98 225.03 62.08 223.28 63.7 223.28 67.98 221.43 67.98 221.43 52.39" fill="#0f225a"/><rect x="232.86" y="52.39" width="1.86" height="15.59" fill="#0f225a"/><path d="m247.05,67.98h-1.75v-1.79h-.04c-.79,1.4-2.05,2.05-3.67,2.05-2.97,0-3.89-1.7-3.89-4.13v-7.42h1.86v7.64c0,1.38.87,2.27,2.29,2.27,2.25,0,3.34-1.51,3.34-3.54v-6.38h1.86v11.29Z" fill="#0f225a"/><path d="m259.69,67.01c0,3.67-1.68,5.54-5.24,5.54-2.12,0-4.56-.85-4.67-3.32h1.86c.09,1.35,1.7,1.83,2.92,1.83,2.42,0,3.38-1.75,3.38-4.28v-.74h-.04c-.61,1.38-2.1,2.05-3.52,2.05-3.36,0-5.04-2.64-5.04-5.72,0-2.66,1.31-5.96,5.22-5.96,1.42,0,2.69.63,3.36,1.88h.02v-1.61h1.75v10.33Zm-1.83-4.91c0-1.99-.87-4.04-3.21-4.04s-3.34,1.94-3.34,4.1c0,2.03.74,4.3,3.19,4.3s3.36-2.25,3.36-4.37" fill="#0f225a"/></g><g id="kombiniert"><polygon points="268.87 52.39 270.73 52.39 270.73 61.62 275.88 56.69 278.37 56.69 273.89 60.79 278.7 67.98 276.34 67.98 272.48 62.08 270.73 63.7 270.73 67.98 268.87 67.98 268.87 52.39" fill="#0f225a"/><path d="m285.07,56.43c3.58,0,5.48,2.6,5.48,5.92s-1.9,5.89-5.48,5.89-5.48-2.6-5.48-5.89,1.9-5.92,5.48-5.92m0,10.17c1.94,0,3.51-1.53,3.51-4.26s-1.57-4.28-3.51-4.28-3.52,1.53-3.52,4.28,1.57,4.26,3.52,4.26" fill="#0f225a"/><path d="m292.84,56.69h1.75v1.66h.04c.83-1.27,2.1-1.92,3.64-1.92,1.38,0,2.64.55,3.1,1.92.76-1.2,2.1-1.92,3.54-1.92,2.25,0,3.76.94,3.76,3.28v8.27h-1.86v-7.4c0-1.4-.37-2.51-2.18-2.51s-2.95,1.14-2.95,2.88v7.03h-1.85v-7.4c0-1.46-.46-2.51-2.12-2.51-2.2,0-3.01,2.03-3.01,2.88v7.03h-1.86v-11.29Z" fill="#0f225a"/><path d="m311.63,52.39h1.86v5.83h.04c.61-1.24,2.05-1.79,3.6-1.79,3.47,0,5.2,2.75,5.2,5.94s-1.7,5.87-5.15,5.87c-1.16,0-2.82-.44-3.65-1.77h-.04v1.51h-1.86v-15.59Zm5.24,5.68c-2.49,0-3.45,2.14-3.45,4.26,0,2.23,1,4.28,3.56,4.28s3.38-2.16,3.38-4.37-1.09-4.17-3.49-4.17" fill="#0f225a"/><path d="m326.58,54.66h-1.86v-2.27h1.86v2.27Zm-1.86,2.03h1.86v11.29h-1.86v-11.29Z" fill="#0f225a"/><path d="m329.57,56.69h1.75v1.79h.04c.79-1.4,2.05-2.05,3.67-2.05,2.97,0,3.89,1.7,3.89,4.13v7.42h-1.86v-7.64c0-1.38-.87-2.27-2.29-2.27-2.25,0-3.34,1.51-3.34,3.54v6.38h-1.86v-11.29Z" fill="#0f225a"/><path d="m343.77,54.66h-1.86v-2.27h1.86v2.27Zm-1.86,2.03h1.86v11.29h-1.86v-11.29Z" fill="#0f225a"/><path d="m356.39,64.4c-.5,2.49-2.29,3.84-4.82,3.84-3.6,0-5.31-2.49-5.41-5.94,0-3.38,2.23-5.87,5.3-5.87,4,0,5.22,3.73,5.11,6.46h-8.45c-.07,1.96,1.05,3.71,3.51,3.71,1.53,0,2.6-.74,2.93-2.2h1.83Zm-1.79-3.14c-.09-1.77-1.42-3.19-3.25-3.19-1.94,0-3.1,1.46-3.23,3.19h6.48Z" fill="#0f225a"/><path d="m358.53,56.69h1.75v2.38h.04c.89-1.81,2.14-2.71,4.15-2.64v1.97c-2.99,0-4.08,1.7-4.08,4.56v5.02h-1.86v-11.29Z" fill="#0f225a"/><path d="m368.55,56.69h2.25v1.64h-2.25v7.01c0,.85.24,1,1.4,1h.85v1.64h-1.42c-1.92,0-2.68-.39-2.68-2.47v-7.18h-1.92v-1.64h1.92v-3.38h1.86v3.38Z" fill="#0f225a"/><rect x="373.37" y="65.55" width="2.42" height="2.42" fill="#0f225a"/></g><rect id="I" x=".25" y="22.53" width="13.25" height="54.13" fill="#0f225a"/><rect id="I-Dot" y="0" width="13.75" height="13.75" fill="#e94d0a"/><path id="BA" d="m169.11,22.53v5.48c-4.78-4.62-10.22-6.96-16.16-6.96-7.28,0-13.42,2.74-18.26,8.13-3.51,3.91-5.75,8.58-6.72,13.93-.97-5.32-3.21-9.97-6.72-13.88-4.84-5.43-10.99-8.19-18.26-8.19-5.98,0-11.43,2.34-16.22,6.96V0h-14.22v76.66h14.22v-4.93c4.71,4.28,10.09,6.46,16,6.46,7.39,0,13.59-2.73,18.43-8.13,3.54-3.94,5.8-8.69,6.78-14.18.97,5.44,3.21,10.19,6.72,14.18,4.88,5.39,11.13,8.13,18.59,8.13,5.61,0,10.93-2.18,15.83-6.49v4.96h13.3V22.53h-13.3Zm-3.32,39.18c-2.69,3.01-6.28,4.53-10.66,4.53-4.09,0-7.53-1.58-10.22-4.69-2.64-3.1-3.98-7.18-3.98-12.13,0-4.62,1.38-8.56,4.08-11.69,2.73-3.08,6.17-4.64,10.23-4.64,4.31,0,7.86,1.54,10.55,4.58,2.71,3.13,4.09,7.18,4.09,12.02s-1.37,8.88-4.08,12.01m-50.8-11.74c0,4.66-1.39,8.59-4.14,11.69-2.69,3.04-6.13,4.59-10.23,4.59-4.34,0-7.89-1.54-10.55-4.59-2.67-2.99-4.02-7.05-4.02-12.07s1.37-8.88,4.08-11.9c2.73-3.04,6.32-4.59,10.66-4.59,4.05,0,7.47,1.6,10.17,4.74,2.67,3.1,4.03,7.18,4.03,12.13" fill="#0f225a"/><path id="S" d="m32.37,59.02c.1,6.44,5.5,9.03,11.31,9.03,4.25,0,9.65-1.66,9.65-6.85,0-4.46-6.12-6.02-16.71-8.3-8.51-1.87-17.02-4.88-17.02-14.32,0-13.7,11.83-17.23,23.35-17.23s22.52,3.94,23.66,17.12h-14.01c-.41-5.71-4.77-7.27-10.07-7.27-3.32,0-8.2.62-8.2,4.98,0,5.29,8.3,6.02,16.71,7.99,8.61,1.97,17.02,5.08,17.02,15.05,0,14.11-12.25,18.68-24.49,18.68s-24.6-4.67-25.22-18.89h14.01Z" fill="#0f225a"/></svg>