<?xml version="1.0" encoding="UTF-8" standalone="no"?>
<svg
   xmlns:dc="http://purl.org/dc/elements/1.1/"
   xmlns:cc="http://creativecommons.org/ns#"
   xmlns:rdf="http://www.w3.org/1999/02/22-rdf-syntax-ns#"
   xmlns:svg="http://www.w3.org/2000/svg"
   xmlns="http://www.w3.org/2000/svg"
   id="svg10"
   version="1.1"
   viewBox="0 0 438 254"
   height="254"
   width="438">
  <metadata
     id="metadata16">
    <rdf:RDF>
      <cc:Work
         rdf:about="">
        <dc:format>image/svg+xml</dc:format>
        <dc:type
           rdf:resource="http://purl.org/dc/dcmitype/StillImage" />
        <dc:title></dc:title>
      </cc:Work>
    </rdf:RDF>
  </metadata>
  <defs
     id="defs14" />
  <style
     id="style2"
     type="text/css">.st0{fill-rule:evenodd;clip-rule:evenodd;fill:#878A8D;} .st1{fill:#878A8D;}</style>
  <g
     id="g30">
    <path
       class="st0"
       d="m 43.6,131.6 c 0,26.5 15.1,43.4 42.4,43.4 10.4,0 18.5,-1 25.7,-3.1 l -1,-27.6 c -3.6,2.3 -9.6,3.6 -15.9,3.6 -13.3,0 -16.4,-10.7 -16.4,-22.1 V 0 L 43.6,11.2 Z M 159.9,91.8 c 1.6,-17.9 11.4,-31.5 30.9,-31.5 19.5,0 27.3,14.6 28.3,31.5 z m 82.7,44.2 c -13,7.3 -27.6,13.5 -44.5,13.5 -21.6,0 -36.7,-12.2 -38.2,-33.8 h 92.6 c 0,-46.8 -14,-80.9 -63.7,-80.9 -41.6,0 -62.1,32 -62.1,70.7 0,43.9 25.7,69.4 69.9,69.4 18.7,0 33.3,-3.6 46,-10.7 z M 271.5,10.9 h 34.8 v 161 H 271.5 Z M 426,39.3 c -9.6,-2.9 -19.8,-4.4 -33.8,-4.4 -41.9,0 -64.7,30.7 -64.7,69.4 0,40.8 22.1,70.7 66,70.7 14.3,0 24.7,-1.3 34.8,-4.4 l -1.6,-28.9 c -6,2.6 -16.9,6.2 -26.8,6.2 -24.4,0 -36.1,-19 -36.1,-43.7 0,-25.2 13.8,-42.4 35.4,-42.4 10.7,0 17.4,2.1 23.7,4.9 z M 85.4,62 122.6,61.9 V 39.2 l -37.2,0.2 z"
       id="path4"
       style="fill:#000000" />
    <circle
       class="st1"
       cx="18.5"
       cy="50.099998"
       r="18.4"
       id="circle6"
       style="fill:#000000" />
  </g>
  <path
     style="fill:#000000"
     id="path8"
     d="M58.8 241.2H48.1v-32.6h-4.7v36.7h15.4zM80.1 208.6h-4.6l-7.9 36.7h4.7l1.2-7.1H82l1.3 7.1h4.8l-8-36.7zm-5.7 25.7l3.4-18.9 3.6 18.9h-7zM116.2 208.6h-4.5l.7 32.1-7.5-32.1h-6.2v36.7h4.5l-.7-31.8 7.2 31.8h6.5zM148.2 226.3h-9.7v4h5.4v3.7c0 4.8-.5 5.7-1.4 6.6-1 1-2.3 1.5-3.7 1.5-3.8 0-4.1-3.2-4.1-4.7-.1-2.3-.3-4.1-.3-7 0-2.8.1-10.4.2-12.4.2-3 .3-6 4.7-6 2.7 0 3.6 1.3 4 2.8.2 1 .2 2.8.2 5.2h4.3c0-5.9 0-7.1-1.2-8.9-1.1-1.7-3.1-2.9-7.5-2.9-6.9 0-8.4 4.2-8.8 7.7-.2 1.3-.4 7-.4 12.6 0 10.3.4 11.7 1 13.3 1.5 3.6 4.9 4.3 6.6 4.3 3.7 0 5.6-1.9 6.8-3.1v2.5h3.8v-19.2zM175 208.6v24.3c0 2.7 0 3-.1 4.5-.1 1.7-.2 4.5-4.1 4.5-4.4 0-4.4-3.3-4.4-6.5v-26.8h-4.6v25.1c0 5.5.1 6.6.8 8.2 1.3 2.8 4.2 4 8.1 4 1.9 0 6.3-.4 8-4.3.8-1.9.9-3.7.9-8.2v-24.8H175zM202.4 208.6h-4.6l-7.9 36.7h4.7l1.2-7.1h8.5l1.3 7.1h4.8l-8-36.7zm-5.7 25.7l3.4-18.9 3.6 18.9h-7zM238.9 226.3h-9.7v4h5.4v3.7c0 4.8-.5 5.7-1.4 6.6-1 1-2.3 1.5-3.7 1.5-3.8 0-4.1-3.2-4.1-4.7-.1-2.3-.3-4.1-.3-7 0-2.8.1-10.4.2-12.4.2-3 .3-6 4.7-6 2.7 0 3.6 1.3 4 2.8.2 1 .2 2.8.2 5.2h4.3c0-5.9 0-7.1-1.2-8.9-1.1-1.7-3.1-2.9-7.5-2.9-6.9 0-8.4 4.2-8.8 7.7-.2 1.3-.4 7-.4 12.6 0 10.3.4 11.7 1 13.3 1.5 3.6 4.9 4.3 6.6 4.3 3.7 0 5.6-1.9 6.8-3.1v2.5h3.8v-19.2zM269.1 241.2h-11.9v-13.4h10.1v-4.2h-10.1v-10.9h11.5v-4.1h-16.1v36.7h16.5zM308 212.7h7v-4.1h-18.5v4.1h7v32.6h4.5zM341.4 241.2h-11.9v-13.4h10.1v-4.2h-10.1v-10.9H341v-4.1h-16.1v36.7h16.5zM352.1 236.7c0 2.8.5 5.5 2.9 7.3.7.6 2.6 1.8 6.1 1.8 2.8 0 8.9-1 8.9-8.8 0-4.2-1.4-6.1-4.4-9.3l-4.6-4.8c-2.6-2.8-3.6-3.8-3.6-6.6 0-1 0-4.4 3.8-4.4 3.2 0 3.7 2.3 3.8 3 .1.7.1 1 .2 4.5h4c0-5.4 0-6.7-1-8.4-1.7-2.7-4.8-3-6.7-3-8.5 0-8.5 6.6-8.5 8.6 0 3.3.7 5.6 4.2 9.2l5 5.1c2.1 2.1 3.4 3.6 3.4 6.5 0 4-3.2 4.6-4.6 4.6-4.1 0-4.4-3.4-4.4-4.4-.1-.7-.1-1.1-.1-4.9h-4.4v4zM390.1 212.7h7v-4.1h-18.5v4.1h7v32.6h4.5zM405.7 236.7c0 2.8.5 5.5 2.9 7.3.7.6 2.6 1.8 6.1 1.8 2.8 0 8.9-1 8.9-8.8 0-4.2-1.4-6.1-4.4-9.3l-4.6-4.8c-2.6-2.8-3.6-3.8-3.6-6.6 0-1 0-4.4 3.8-4.4 3.2 0 3.7 2.3 3.8 3 .1.7.1 1 .2 4.5h4c0-5.4 0-6.7-1-8.4-1.7-2.7-4.8-3-6.7-3-8.5 0-8.5 6.6-8.5 8.6 0 3.3.7 5.6 4.2 9.2l5 5.1c2.1 2.1 3.4 3.6 3.4 6.5 0 4-3.2 4.6-4.6 4.6-4.1 0-4.4-3.4-4.4-4.4-.1-.7-.1-1.1-.1-4.9h-4.4v4z"
     class="st0" />
</svg>
