<?xml version="1.0" encoding="utf-8"?>
<!-- Generator: Adobe Illustrator 24.0.1, SVG Export Plug-In . SVG Version: 6.00 Build 0)  -->
<!DOCTYPE svg PUBLIC "-//W3C//DTD SVG 1.1//EN" "http://www.w3.org/Graphics/SVG/1.1/DTD/svg11.dtd" [
	<!ENTITY ns_extend "http://ns.adobe.com/Extensibility/1.0/">
	<!ENTITY ns_ai "http://ns.adobe.com/AdobeIllustrator/10.0/">
	<!ENTITY ns_graphs "http://ns.adobe.com/Graphs/1.0/">
	<!ENTITY ns_vars "http://ns.adobe.com/Variables/1.0/">
	<!ENTITY ns_imrep "http://ns.adobe.com/ImageReplacement/1.0/">
	<!ENTITY ns_sfw "http://ns.adobe.com/SaveForWeb/1.0/">
	<!ENTITY ns_custom "http://ns.adobe.com/GenericCustomNamespace/1.0/">
	<!ENTITY ns_adobe_xpath "http://ns.adobe.com/XPath/1.0/">
]>
<svg version="1.1" id="Ebene_1" xmlns:x="&ns_extend;" xmlns:i="&ns_ai;" xmlns:graph="&ns_graphs;"
	 xmlns="http://www.w3.org/2000/svg" xmlns:xlink="http://www.w3.org/1999/xlink" x="0px" y="0px" viewBox="0 0 481.9 198.4"
	 style="enable-background:new 0 0 481.9 198.4;" xml:space="preserve">
<style type="text/css">
	.st0{fill:#5F6162;}
	.st1{fill:#E3000F;}
</style>
<metadata>
	<sfw  xmlns="&ns_sfw;">
		<slices></slices>
		<sliceSourceBounds  bottomLeftOrigin="true" height="16383" width="16383" x="-7770" y="-8489.1"></sliceSourceBounds>
	</sfw>
</metadata>
<g>
	<path class="st0" d="M72.4,141.1v14.3h-1.8v-14.3H72.4z"/>
	<path class="st0" d="M87.4,152.1v-11h1.8v14.3h-1.2l-8.8-11v11h-1.8v-14.3h1.2L87.4,152.1z"/>
	<path class="st0" d="M92.5,141.1h11.6v1.6h-4.9v12.7h-1.7v-12.7h-4.9V141.1z"/>
	<path class="st0" d="M117.6,141.1v1.6h-8.3v4.5h8v1.7h-8v4.9h8.6v1.7h-10.4v-14.3H117.6z"/>
	<path class="st0" d="M123.8,150.2v5.2H122v-14.3h6.5c3.2,0,4.9,2.3,4.9,4.6c0,2.2-1.1,4.2-4.1,4.4l4.7,5.3h-2.3l-4.5-5.2H123.8z
		 M131.6,145.7c0-1.4-1-3-3.1-3h-4.7v6h4.6C130.6,148.7,131.6,147.3,131.6,145.7z"/>
	<path class="st0" d="M147.8,152.1v-11h1.8v14.3h-1.2l-8.8-11v11h-1.8v-14.3h1.2L147.8,152.1z"/>
	<path class="st0" d="M167.8,155.4h-1.9l-1.4-3.2h-8.2l-1.4,3.2h-1.9l6.5-14.3h2L167.8,155.4z M157,150.6h6.8l-3.4-7.7L157,150.6z"
		/>
	<path class="st0" d="M168.3,141.1h11.6v1.6h-4.9v12.7h-1.7v-12.7h-4.9V141.1z"/>
	<path class="st0" d="M185,141.1v14.3h-1.8v-14.3H185z"/>
	<path class="st0" d="M203.6,148.3c0,3.8-2.4,7.4-7.3,7.4c-4.9,0-7.3-3.6-7.3-7.4c0-4.2,2.8-7.5,7.3-7.5
		C201.2,140.8,203.6,144.5,203.6,148.3z M196.4,142.4c-3.7,0-5.5,2.7-5.5,5.9c0,2.9,1.8,5.8,5.5,5.8c3.8,0,5.5-2.9,5.5-5.8
		C201.9,145.4,200.1,142.5,196.4,142.4z"/>
	<path class="st0" d="M217.7,152.1v-11h1.8v14.3h-1.2l-8.8-11v11h-1.8v-14.3h1.2L217.7,152.1z"/>
	<path class="st0" d="M237.7,155.4h-1.9l-1.4-3.2h-8.2l-1.4,3.2h-1.9l6.5-14.3h2L237.7,155.4z M226.9,150.6h6.8l-3.4-7.7
		L226.9,150.6z"/>
	<path class="st0" d="M250.7,153.8v1.7h-9.6v-14.3h1.8v12.7H250.7z"/>
	<path class="st0" d="M264.2,141.1v1.6h-8.3v4.5h8v1.7h-8v4.9h8.6v1.7h-10.4v-14.3H264.2z"/>
	<path class="st0" d="M278.9,148.9v6.5h-1.8v-14.3h1.8v6.2h8.2v-6.2h1.8v14.3h-1.8v-6.5H278.9z"/>
	<path class="st0" d="M307.5,148.3c0,3.8-2.4,7.4-7.3,7.4c-4.9,0-7.3-3.6-7.3-7.4c0-4.2,2.8-7.5,7.3-7.5
		C305.1,140.8,307.5,144.5,307.5,148.3z M300.2,142.4c-3.7,0-5.5,2.7-5.5,5.9c0,2.9,1.8,5.8,5.5,5.8s5.5-2.9,5.5-5.8
		C305.7,145.4,304,142.5,300.2,142.4z"/>
	<path class="st0" d="M318.1,155.7c-5.1,0-7.5-3.6-7.5-7.5c0-3.8,2.5-7.5,7.5-7.5c1.9,0,3.8,0.7,5.3,2.2l-1.2,1.1
		c-1.1-1.1-2.6-1.6-4-1.6c-3.9,0-5.7,2.8-5.7,5.8c0.1,2.9,1.8,5.7,5.7,5.7c1.5,0,3-0.6,4.1-1.7l1.2,1.2
		C322,155,320.1,155.7,318.1,155.7z"/>
	<path class="st0" d="M329,148.9v6.5h-1.8v-14.3h1.8v6.2h8.2v-6.2h1.8v14.3h-1.8v-6.5H329z"/>
	<path class="st0" d="M348.9,142.4c-1.8,0-3.8,0.8-3.8,2.4c0,1.6,1.8,2.1,3.9,2.4c2.8,0.4,5.7,1.1,5.7,4.2c0,3.2-3.1,4.3-5.8,4.3
		c-2.4,0-4.9-0.9-6-3.3l1.4-0.9c1,1.8,2.7,2.5,4.6,2.5c1.7,0,4.1-0.6,4.1-2.7c0-1.8-2-2.3-4.1-2.6c-2.8-0.4-5.5-1-5.5-4
		c0-2.8,3.1-3.9,5.5-3.9c2.1,0,4.2,0.5,5.5,2.6l-1.4,0.8C352.1,143,350.5,142.4,348.9,142.4z"/>
	<path class="st0" d="M365.2,155.7c-5.1,0-7.5-3.6-7.5-7.5c0-3.8,2.5-7.5,7.5-7.5c1.9,0,3.8,0.7,5.3,2.2l-1.2,1.1
		c-1.1-1.1-2.6-1.6-4-1.6c-3.9,0-5.7,2.8-5.7,5.8c0.1,2.9,1.8,5.7,5.7,5.7c1.5,0,3-0.6,4.1-1.7l1.2,1.2
		C369.1,155,367.2,155.7,365.2,155.7z"/>
	<path class="st0" d="M376.1,148.9v6.5h-1.8v-14.3h1.8v6.2h8.2v-6.2h1.8v14.3h-1.8v-6.5H376.1z"/>
	<path class="st0" d="M402.6,149.7c0,4-2.7,6-5.8,6c-3.1,0-5.9-2-5.9-6v-8.6h1.8v8.6c0,2.8,1.9,4.3,4.1,4.3c2.2,0,4.1-1.6,4.1-4.4
		v-8.6h1.8V149.7z"/>
	<path class="st0" d="M417,153.8v1.7h-9.6v-14.3h1.8v12.7H417z"/>
	<path class="st0" d="M430.4,141.1v1.6h-8.3v4.5h8v1.7h-8v4.9h8.6v1.7h-10.4v-14.3H430.4z"/>
</g>
<g>
	<polygon class="st1" points="386.1,115.6 397.3,115.6 414.5,43.7 386.1,43.7 	"/>
	<path class="st1" d="M256.7,115.2c-3-1.2-5.5-2.7-7.5-4.7c-2-2-3.5-4.3-4.6-6.9c-1.1-2.6-1.6-5.4-1.6-8.4V63c0.1-2.8,0.8-5.5,1.9-8
		c1.1-2.5,2.7-4.7,4.7-6.6c2-1.9,4.5-3.3,7.4-4.4c0.3-0.1,0.7-0.2,1.1-0.3H236v14.5h-15.6v57.4l0.8,0H258
		C257.5,115.4,257.1,115.3,256.7,115.2z"/>
	<polygon class="st1" points="95.3,115.5 101.1,115.5 101.1,43.7 90.2,43.7 73,115.5 	"/>
	<path class="st1" d="M349.6,49.1c2.1,1.9,3.8,4.2,5,6.7c1.2,2.6,1.9,5.3,2.1,8.1v14.2c0,3.5-0.7,6.7-2.2,9.7
		c-1.5,3-3.6,5.5-6.4,7.6l11.7,20.1h9.8V43.7h-31.4c1.4,0.2,2.7,0.5,3.9,1C344.9,45.7,347.4,47.2,349.6,49.1z"/>
	<path class="st1" d="M174.8,49.1c2,2,3.5,4.3,4.6,6.9c1.1,2.6,1.6,5.4,1.6,8.4h-16.6c0-2-0.8-3.7-2.3-5.2c-1.5-1.5-3.3-2.2-5.2-2.2
		h-2.3c-2,0-3.7,0.7-5.2,2.2c-1.5,1.5-2.3,3.2-2.3,5.2v30.9c0,1,0.2,1.9,0.6,2.8c0.4,0.9,0.9,1.7,1.6,2.4c0.7,0.7,1.5,1.2,2.4,1.6
		c0.9,0.4,1.9,0.6,2.9,0.6h2.3c1,0,1.9-0.2,2.8-0.6c0.9-0.4,1.7-0.9,2.4-1.6c0.7-0.7,1.2-1.5,1.7-2.4c0.4-0.9,0.6-1.8,0.6-2.8H181
		c0,3-0.5,5.8-1.6,8.4c-1.1,2.6-2.6,4.9-4.6,6.9c-2,2-4.5,3.5-7.5,4.7c-0.2,0.1-0.4,0.1-0.6,0.2l37.1,0V58.2h-15.6V43.7h-23
		c0.7,0.2,1.4,0.4,2.1,0.7C170.3,45.6,172.8,47.1,174.8,49.1z"/>
	<path class="st1" d="M144.9,115.6c-0.2-0.1-0.4-0.1-0.6-0.2c-3-1.2-5.5-2.7-7.5-4.7c-2-2-3.5-4.3-4.6-6.9c-1.1-2.6-1.6-5.4-1.6-8.4
		l-0.1-32.1h0.1c0.1-2.8,0.8-5.5,1.9-8c1.1-2.5,2.7-4.7,4.7-6.6c2-1.9,4.5-3.3,7.4-4.4c0.6-0.2,1.1-0.4,1.7-0.5h-28.6v71.8
		L144.9,115.6z"/>
	<polygon class="st1" points="72.8,43.7 56.5,43.7 64.6,85.4 	"/>
	<polygon class="st1" points="414.6,115.6 431,115.6 422.8,73.7 	"/>
	<path class="st1" d="M264.2,102c0.9,0.4,1.8,0.6,2.8,0.6h2.4c1,0,1.9-0.2,2.8-0.6c0.9-0.4,1.7-0.9,2.4-1.6c0.7-0.7,1.2-1.5,1.6-2.4
		c0.4-0.9,0.6-1.8,0.6-2.8V64.2c0-2-0.7-3.7-2.2-5.2c-1.5-1.5-3.2-2.2-5.2-2.2H267c-1,0-1.9,0.2-2.8,0.6c-0.9,0.4-1.7,0.9-2.4,1.6
		c-0.7,0.7-1.2,1.5-1.6,2.4c-0.4,0.9-0.6,1.8-0.6,2.8v30.9c0,1,0.2,1.9,0.6,2.8c0.4,0.9,0.9,1.7,1.6,2.4S263.3,101.6,264.2,102z"/>
	<polygon class="st1" points="322.9,99.9 322.9,115.6 340.3,115.6 330.4,99.9 	"/>
	<path class="st1" d="M287.3,48.9c2,2,3.5,4.3,4.6,6.9c1.1,2.6,1.6,5.4,1.6,8.4v32.1c-0.1,2.8-0.8,5.5-1.9,8s-2.7,4.7-4.7,6.5
		c-2,1.8-4.5,3.3-7.4,4.4c-0.3,0.1-0.6,0.2-1,0.3h27.9V43.7h-28c0.5,0.2,1,0.3,1.4,0.5C282.7,45.4,285.2,46.9,287.3,48.9z"/>
	<path class="st1" d="M337.8,83.4c1.5-1.5,2.3-3.2,2.3-5.2v-13c0-1-0.2-1.9-0.6-2.8s-1-1.7-1.7-2.4c-0.7-0.7-1.5-1.2-2.4-1.6
		c-0.9-0.4-1.8-0.6-2.8-0.6h-9.6v27.8h9.6C334.5,85.6,336.3,84.8,337.8,83.4z"/>
</g>
</svg>
